ISO-10303-21;
HEADER;
FILE_DESCRIPTION(('MediCAD Parametric Prototyping STEP Model'), '2;1');
FILE_NAME('TUBE_V2.step', '2026-08-14T16:05:29', ('MediCAD Engine'), ('Medical CAD Builder'), 'MediCAD CAD Core 0.1.0', 'Python / MediCAD', '');
FILE_SCHEMA(('AUTOMOTIVE_DESIGN { 1 0 10303 214 1 1 1 1 }'));
ENDSEC;
DATA;
#1=APPLICATION_CONTEXT('core data for automotive and medical design');
#2=APPLICATION_PROTOCOL_DEFINITION('international standard', 'automotive_design', 2000, #1);
#3=PRODUCT_CONTEXT('part definition', #1, 'mechanical');
#4=PRODUCT('TUBE_V2', 'TUBE_V2', 'Parametric Medical CAD Model', (#3));
#5=PRODUCT_DEFINITION_FORMATION_WITH_SPECIFIED_SOURCE('1.0', '', #4, .NOT_KNOWN.);
#6=PRODUCT_DEFINITION('design', '', #5, #3);
#7=PRODUCT_DEFINITION_SHAPE('', '', #6);
#8=SHAPE_REPRESENTATION('', (#9), #10);
#9=AXIS2_PLACEMENT_3D('', #11, #12, #13);
#10=(GEOMETRIC_REPRESENTATION_CONTEXT(3) GLOBAL_UNCERTAINTY_ASSIGNED_CONTEXT((#14)) GLOBAL_UNIT_ASSIGNED_CONTEXT((#15,#16,#17)) REPRESENTATION_CONTEXT('Context3D', '3D Context'));
#11=CARTESIAN_POINT('', (0., 0., 0.));
#12=DIRECTION('', (0., 0., 1.));
#13=DIRECTION('', (1., 0., 0.));
#14=UNCERTAINTY_MEASURE_WITH_UNIT(LENGTH_MEASURE(1.E-05), #15, 'distance_accuracy_value', 'confusion accuracy');
#15=(LENGTH_UNIT() NAMED_UNIT(*) SI_UNIT(.MILLI., .METRE.));
#16=(NAMED_UNIT(*) PLANE_ANGLE_UNIT() SI_UNIT($, .RADIAN.));
#17=(NAMED_UNIT(*) SI_UNIT($, .STERADIAN.) SOLID_ANGLE_UNIT());
#18=SHAPE_DEFINITION_REPRESENTATION(#7, #8);
#19=CARTESIAN_POINT('', (1.600000, 0.000000, 0.000000));
#20=CARTESIAN_POINT('', (1.592296, 0.156827, 0.000000));
#21=CARTESIAN_POINT('', (1.569256, 0.312145, 0.000000));
#22=CARTESIAN_POINT('', (1.531105, 0.464455, 0.000000));
#23=CARTESIAN_POINT('', (1.478207, 0.612293, 0.000000));
#24=CARTESIAN_POINT('', (1.411074, 0.754235, 0.000000));
#25=CARTESIAN_POINT('', (1.330351, 0.888912, 0.000000));
#26=CARTESIAN_POINT('', (1.236817, 1.015029, 0.000000));
#27=CARTESIAN_POINT('', (1.131371, 1.131371, 0.000000));
#28=CARTESIAN_POINT('', (1.015029, 1.236817, 0.000000));
#29=CARTESIAN_POINT('', (0.888912, 1.330351, 0.000000));
#30=CARTESIAN_POINT('', (0.754235, 1.411074, 0.000000));
#31=CARTESIAN_POINT('', (0.612293, 1.478207, 0.000000));
#32=CARTESIAN_POINT('', (0.464455, 1.531105, 0.000000));
#33=CARTESIAN_POINT('', (0.312145, 1.569256, 0.000000));
#34=CARTESIAN_POINT('', (0.156827, 1.592296, 0.000000));
#35=CARTESIAN_POINT('', (0.000000, 1.600000, 0.000000));
#36=CARTESIAN_POINT('', (-0.156827, 1.592296, 0.000000));
#37=CARTESIAN_POINT('', (-0.312145, 1.569256, 0.000000));
#38=CARTESIAN_POINT('', (-0.464455, 1.531105, 0.000000));
#39=CARTESIAN_POINT('', (-0.612293, 1.478207, 0.000000));
#40=CARTESIAN_POINT('', (-0.754235, 1.411074, 0.000000));
#41=CARTESIAN_POINT('', (-0.888912, 1.330351, 0.000000));
#42=CARTESIAN_POINT('', (-1.015029, 1.236817, 0.000000));
#43=CARTESIAN_POINT('', (-1.131371, 1.131371, 0.000000));
#44=CARTESIAN_POINT('', (-1.236817, 1.015029, 0.000000));
#45=CARTESIAN_POINT('', (-1.330351, 0.888912, 0.000000));
#46=CARTESIAN_POINT('', (-1.411074, 0.754235, 0.000000));
#47=CARTESIAN_POINT('', (-1.478207, 0.612293, 0.000000));
#48=CARTESIAN_POINT('', (-1.531105, 0.464455, 0.000000));
#49=CARTESIAN_POINT('', (-1.569256, 0.312145, 0.000000));
#50=CARTESIAN_POINT('', (-1.592296, 0.156827, 0.000000));
#51=CARTESIAN_POINT('', (-1.600000, 0.000000, 0.000000));
#52=CARTESIAN_POINT('', (-1.592296, -0.156827, 0.000000));
#53=CARTESIAN_POINT('', (-1.569256, -0.312145, 0.000000));
#54=CARTESIAN_POINT('', (-1.531105, -0.464455, 0.000000));
#55=CARTESIAN_POINT('', (-1.478207, -0.612293, 0.000000));
#56=CARTESIAN_POINT('', (-1.411074, -0.754235, 0.000000));
#57=CARTESIAN_POINT('', (-1.330351, -0.888912, 0.000000));
#58=CARTESIAN_POINT('', (-1.236817, -1.015029, 0.000000));
#59=CARTESIAN_POINT('', (-1.131371, -1.131371, 0.000000));
#60=CARTESIAN_POINT('', (-1.015029, -1.236817, 0.000000));
#61=CARTESIAN_POINT('', (-0.888912, -1.330351, 0.000000));
#62=CARTESIAN_POINT('', (-0.754235, -1.411074, 0.000000));
#63=CARTESIAN_POINT('', (-0.612293, -1.478207, 0.000000));
#64=CARTESIAN_POINT('', (-0.464455, -1.531105, 0.000000));
#65=CARTESIAN_POINT('', (-0.312145, -1.569256, 0.000000));
#66=CARTESIAN_POINT('', (-0.156827, -1.592296, 0.000000));
#67=CARTESIAN_POINT('', (-0.000000, -1.600000, 0.000000));
#68=CARTESIAN_POINT('', (0.156827, -1.592296, 0.000000));
#69=CARTESIAN_POINT('', (0.312145, -1.569256, 0.000000));
#70=CARTESIAN_POINT('', (0.464455, -1.531105, 0.000000));
#71=CARTESIAN_POINT('', (0.612293, -1.478207, 0.000000));
#72=CARTESIAN_POINT('', (0.754235, -1.411074, 0.000000));
#73=CARTESIAN_POINT('', (0.888912, -1.330351, 0.000000));
#74=CARTESIAN_POINT('', (1.015029, -1.236817, 0.000000));
#75=CARTESIAN_POINT('', (1.131371, -1.131371, 0.000000));
#76=CARTESIAN_POINT('', (1.236817, -1.015029, 0.000000));
#77=CARTESIAN_POINT('', (1.330351, -0.888912, 0.000000));
#78=CARTESIAN_POINT('', (1.411074, -0.754235, 0.000000));
#79=CARTESIAN_POINT('', (1.478207, -0.612293, 0.000000));
#80=CARTESIAN_POINT('', (1.531105, -0.464455, 0.000000));
#81=CARTESIAN_POINT('', (1.569256, -0.312145, 0.000000));
#82=CARTESIAN_POINT('', (1.592296, -0.156827, 0.000000));
#83=CARTESIAN_POINT('', (1.600000, 0.000000, 160.000000));
#84=CARTESIAN_POINT('', (1.592296, 0.156827, 160.000000));
#85=CARTESIAN_POINT('', (1.569256, 0.312145, 160.000000));
#86=CARTESIAN_POINT('', (1.531105, 0.464455, 160.000000));
#87=CARTESIAN_POINT('', (1.478207, 0.612293, 160.000000));
#88=CARTESIAN_POINT('', (1.411074, 0.754235, 160.000000));
#89=CARTESIAN_POINT('', (1.330351, 0.888912, 160.000000));
#90=CARTESIAN_POINT('', (1.236817, 1.015029, 160.000000));
#91=CARTESIAN_POINT('', (1.131371, 1.131371, 160.000000));
#92=CARTESIAN_POINT('', (1.015029, 1.236817, 160.000000));
#93=CARTESIAN_POINT('', (0.888912, 1.330351, 160.000000));
#94=CARTESIAN_POINT('', (0.754235, 1.411074, 160.000000));
#95=CARTESIAN_POINT('', (0.612293, 1.478207, 160.000000));
#96=CARTESIAN_POINT('', (0.464455, 1.531105, 160.000000));
#97=CARTESIAN_POINT('', (0.312145, 1.569256, 160.000000));
#98=CARTESIAN_POINT('', (0.156827, 1.592296, 160.000000));
#99=CARTESIAN_POINT('', (0.000000, 1.600000, 160.000000));
#100=CARTESIAN_POINT('', (-0.156827, 1.592296, 160.000000));
#101=CARTESIAN_POINT('', (-0.312145, 1.569256, 160.000000));
#102=CARTESIAN_POINT('', (-0.464455, 1.531105, 160.000000));
#103=CARTESIAN_POINT('', (-0.612293, 1.478207, 160.000000));
#104=CARTESIAN_POINT('', (-0.754235, 1.411074, 160.000000));
#105=CARTESIAN_POINT('', (-0.888912, 1.330351, 160.000000));
#106=CARTESIAN_POINT('', (-1.015029, 1.236817, 160.000000));
#107=CARTESIAN_POINT('', (-1.131371, 1.131371, 160.000000));
#108=CARTESIAN_POINT('', (-1.236817, 1.015029, 160.000000));
#109=CARTESIAN_POINT('', (-1.330351, 0.888912, 160.000000));
#110=CARTESIAN_POINT('', (-1.411074, 0.754235, 160.000000));
#111=CARTESIAN_POINT('', (-1.478207, 0.612293, 160.000000));
#112=CARTESIAN_POINT('', (-1.531105, 0.464455, 160.000000));
#113=CARTESIAN_POINT('', (-1.569256, 0.312145, 160.000000));
#114=CARTESIAN_POINT('', (-1.592296, 0.156827, 160.000000));
#115=CARTESIAN_POINT('', (-1.600000, 0.000000, 160.000000));
#116=CARTESIAN_POINT('', (-1.592296, -0.156827, 160.000000));
#117=CARTESIAN_POINT('', (-1.569256, -0.312145, 160.000000));
#118=CARTESIAN_POINT('', (-1.531105, -0.464455, 160.000000));
#119=CARTESIAN_POINT('', (-1.478207, -0.612293, 160.000000));
#120=CARTESIAN_POINT('', (-1.411074, -0.754235, 160.000000));
#121=CARTESIAN_POINT('', (-1.330351, -0.888912, 160.000000));
#122=CARTESIAN_POINT('', (-1.236817, -1.015029, 160.000000));
#123=CARTESIAN_POINT('', (-1.131371, -1.131371, 160.000000));
#124=CARTESIAN_POINT('', (-1.015029, -1.236817, 160.000000));
#125=CARTESIAN_POINT('', (-0.888912, -1.330351, 160.000000));
#126=CARTESIAN_POINT('', (-0.754235, -1.411074, 160.000000));
#127=CARTESIAN_POINT('', (-0.612293, -1.478207, 160.000000));
#128=CARTESIAN_POINT('', (-0.464455, -1.531105, 160.000000));
#129=CARTESIAN_POINT('', (-0.312145, -1.569256, 160.000000));
#130=CARTESIAN_POINT('', (-0.156827, -1.592296, 160.000000));
#131=CARTESIAN_POINT('', (-0.000000, -1.600000, 160.000000));
#132=CARTESIAN_POINT('', (0.156827, -1.592296, 160.000000));
#133=CARTESIAN_POINT('', (0.312145, -1.569256, 160.000000));
#134=CARTESIAN_POINT('', (0.464455, -1.531105, 160.000000));
#135=CARTESIAN_POINT('', (0.612293, -1.478207, 160.000000));
#136=CARTESIAN_POINT('', (0.754235, -1.411074, 160.000000));
#137=CARTESIAN_POINT('', (0.888912, -1.330351, 160.000000));
#138=CARTESIAN_POINT('', (1.015029, -1.236817, 160.000000));
#139=CARTESIAN_POINT('', (1.131371, -1.131371, 160.000000));
#140=CARTESIAN_POINT('', (1.236817, -1.015029, 160.000000));
#141=CARTESIAN_POINT('', (1.330351, -0.888912, 160.000000));
#142=CARTESIAN_POINT('', (1.411074, -0.754235, 160.000000));
#143=CARTESIAN_POINT('', (1.478207, -0.612293, 160.000000));
#144=CARTESIAN_POINT('', (1.531105, -0.464455, 160.000000));
#145=CARTESIAN_POINT('', (1.569256, -0.312145, 160.000000));
#146=CARTESIAN_POINT('', (1.592296, -0.156827, 160.000000));
#147=CARTESIAN_POINT('', (1.000000, 0.000000, 0.000000));
#148=CARTESIAN_POINT('', (0.995185, 0.098017, 0.000000));
#149=CARTESIAN_POINT('', (0.980785, 0.195090, 0.000000));
#150=CARTESIAN_POINT('', (0.956940, 0.290285, 0.000000));
#151=CARTESIAN_POINT('', (0.923880, 0.382683, 0.000000));
#152=CARTESIAN_POINT('', (0.881921, 0.471397, 0.000000));
#153=CARTESIAN_POINT('', (0.831470, 0.555570, 0.000000));
#154=CARTESIAN_POINT('', (0.773010, 0.634393, 0.000000));
#155=CARTESIAN_POINT('', (0.707107, 0.707107, 0.000000));
#156=CARTESIAN_POINT('', (0.634393, 0.773010, 0.000000));
#157=CARTESIAN_POINT('', (0.555570, 0.831470, 0.000000));
#158=CARTESIAN_POINT('', (0.471397, 0.881921, 0.000000));
#159=CARTESIAN_POINT('', (0.382683, 0.923880, 0.000000));
#160=CARTESIAN_POINT('', (0.290285, 0.956940, 0.000000));
#161=CARTESIAN_POINT('', (0.195090, 0.980785, 0.000000));
#162=CARTESIAN_POINT('', (0.098017, 0.995185, 0.000000));
#163=CARTESIAN_POINT('', (0.000000, 1.000000, 0.000000));
#164=CARTESIAN_POINT('', (-0.098017, 0.995185, 0.000000));
#165=CARTESIAN_POINT('', (-0.195090, 0.980785, 0.000000));
#166=CARTESIAN_POINT('', (-0.290285, 0.956940, 0.000000));
#167=CARTESIAN_POINT('', (-0.382683, 0.923880, 0.000000));
#168=CARTESIAN_POINT('', (-0.471397, 0.881921, 0.000000));
#169=CARTESIAN_POINT('', (-0.555570, 0.831470, 0.000000));
#170=CARTESIAN_POINT('', (-0.634393, 0.773010, 0.000000));
#171=CARTESIAN_POINT('', (-0.707107, 0.707107, 0.000000));
#172=CARTESIAN_POINT('', (-0.773010, 0.634393, 0.000000));
#173=CARTESIAN_POINT('', (-0.831470, 0.555570, 0.000000));
#174=CARTESIAN_POINT('', (-0.881921, 0.471397, 0.000000));
#175=CARTESIAN_POINT('', (-0.923880, 0.382683, 0.000000));
#176=CARTESIAN_POINT('', (-0.956940, 0.290285, 0.000000));
#177=CARTESIAN_POINT('', (-0.980785, 0.195090, 0.000000));
#178=CARTESIAN_POINT('', (-0.995185, 0.098017, 0.000000));
#179=CARTESIAN_POINT('', (-1.000000, 0.000000, 0.000000));
#180=CARTESIAN_POINT('', (-0.995185, -0.098017, 0.000000));
#181=CARTESIAN_POINT('', (-0.980785, -0.195090, 0.000000));
#182=CARTESIAN_POINT('', (-0.956940, -0.290285, 0.000000));
#183=CARTESIAN_POINT('', (-0.923880, -0.382683, 0.000000));
#184=CARTESIAN_POINT('', (-0.881921, -0.471397, 0.000000));
#185=CARTESIAN_POINT('', (-0.831470, -0.555570, 0.000000));
#186=CARTESIAN_POINT('', (-0.773010, -0.634393, 0.000000));
#187=CARTESIAN_POINT('', (-0.707107, -0.707107, 0.000000));
#188=CARTESIAN_POINT('', (-0.634393, -0.773010, 0.000000));
#189=CARTESIAN_POINT('', (-0.555570, -0.831470, 0.000000));
#190=CARTESIAN_POINT('', (-0.471397, -0.881921, 0.000000));
#191=CARTESIAN_POINT('', (-0.382683, -0.923880, 0.000000));
#192=CARTESIAN_POINT('', (-0.290285, -0.956940, 0.000000));
#193=CARTESIAN_POINT('', (-0.195090, -0.980785, 0.000000));
#194=CARTESIAN_POINT('', (-0.098017, -0.995185, 0.000000));
#195=CARTESIAN_POINT('', (-0.000000, -1.000000, 0.000000));
#196=CARTESIAN_POINT('', (0.098017, -0.995185, 0.000000));
#197=CARTESIAN_POINT('', (0.195090, -0.980785, 0.000000));
#198=CARTESIAN_POINT('', (0.290285, -0.956940, 0.000000));
#199=CARTESIAN_POINT('', (0.382683, -0.923880, 0.000000));
#200=CARTESIAN_POINT('', (0.471397, -0.881921, 0.000000));
#201=CARTESIAN_POINT('', (0.555570, -0.831470, 0.000000));
#202=CARTESIAN_POINT('', (0.634393, -0.773010, 0.000000));
#203=CARTESIAN_POINT('', (0.707107, -0.707107, 0.000000));
#204=CARTESIAN_POINT('', (0.773010, -0.634393, 0.000000));
#205=CARTESIAN_POINT('', (0.831470, -0.555570, 0.000000));
#206=CARTESIAN_POINT('', (0.881921, -0.471397, 0.000000));
#207=CARTESIAN_POINT('', (0.923880, -0.382683, 0.000000));
#208=CARTESIAN_POINT('', (0.956940, -0.290285, 0.000000));
#209=CARTESIAN_POINT('', (0.980785, -0.195090, 0.000000));
#210=CARTESIAN_POINT('', (0.995185, -0.098017, 0.000000));
#211=CARTESIAN_POINT('', (1.000000, 0.000000, 160.000000));
#212=CARTESIAN_POINT('', (0.995185, 0.098017, 160.000000));
#213=CARTESIAN_POINT('', (0.980785, 0.195090, 160.000000));
#214=CARTESIAN_POINT('', (0.956940, 0.290285, 160.000000));
#215=CARTESIAN_POINT('', (0.923880, 0.382683, 160.000000));
#216=CARTESIAN_POINT('', (0.881921, 0.471397, 160.000000));
#217=CARTESIAN_POINT('', (0.831470, 0.555570, 160.000000));
#218=CARTESIAN_POINT('', (0.773010, 0.634393, 160.000000));
#219=CARTESIAN_POINT('', (0.707107, 0.707107, 160.000000));
#220=CARTESIAN_POINT('', (0.634393, 0.773010, 160.000000));
#221=CARTESIAN_POINT('', (0.555570, 0.831470, 160.000000));
#222=CARTESIAN_POINT('', (0.471397, 0.881921, 160.000000));
#223=CARTESIAN_POINT('', (0.382683, 0.923880, 160.000000));
#224=CARTESIAN_POINT('', (0.290285, 0.956940, 160.000000));
#225=CARTESIAN_POINT('', (0.195090, 0.980785, 160.000000));
#226=CARTESIAN_POINT('', (0.098017, 0.995185, 160.000000));
#227=CARTESIAN_POINT('', (0.000000, 1.000000, 160.000000));
#228=CARTESIAN_POINT('', (-0.098017, 0.995185, 160.000000));
#229=CARTESIAN_POINT('', (-0.195090, 0.980785, 160.000000));
#230=CARTESIAN_POINT('', (-0.290285, 0.956940, 160.000000));
#231=CARTESIAN_POINT('', (-0.382683, 0.923880, 160.000000));
#232=CARTESIAN_POINT('', (-0.471397, 0.881921, 160.000000));
#233=CARTESIAN_POINT('', (-0.555570, 0.831470, 160.000000));
#234=CARTESIAN_POINT('', (-0.634393, 0.773010, 160.000000));
#235=CARTESIAN_POINT('', (-0.707107, 0.707107, 160.000000));
#236=CARTESIAN_POINT('', (-0.773010, 0.634393, 160.000000));
#237=CARTESIAN_POINT('', (-0.831470, 0.555570, 160.000000));
#238=CARTESIAN_POINT('', (-0.881921, 0.471397, 160.000000));
#239=CARTESIAN_POINT('', (-0.923880, 0.382683, 160.000000));
#240=CARTESIAN_POINT('', (-0.956940, 0.290285, 160.000000));
#241=CARTESIAN_POINT('', (-0.980785, 0.195090, 160.000000));
#242=CARTESIAN_POINT('', (-0.995185, 0.098017, 160.000000));
#243=CARTESIAN_POINT('', (-1.000000, 0.000000, 160.000000));
#244=CARTESIAN_POINT('', (-0.995185, -0.098017, 160.000000));
#245=CARTESIAN_POINT('', (-0.980785, -0.195090, 160.000000));
#246=CARTESIAN_POINT('', (-0.956940, -0.290285, 160.000000));
#247=CARTESIAN_POINT('', (-0.923880, -0.382683, 160.000000));
#248=CARTESIAN_POINT('', (-0.881921, -0.471397, 160.000000));
#249=CARTESIAN_POINT('', (-0.831470, -0.555570, 160.000000));
#250=CARTESIAN_POINT('', (-0.773010, -0.634393, 160.000000));
#251=CARTESIAN_POINT('', (-0.707107, -0.707107, 160.000000));
#252=CARTESIAN_POINT('', (-0.634393, -0.773010, 160.000000));
#253=CARTESIAN_POINT('', (-0.555570, -0.831470, 160.000000));
#254=CARTESIAN_POINT('', (-0.471397, -0.881921, 160.000000));
#255=CARTESIAN_POINT('', (-0.382683, -0.923880, 160.000000));
#256=CARTESIAN_POINT('', (-0.290285, -0.956940, 160.000000));
#257=CARTESIAN_POINT('', (-0.195090, -0.980785, 160.000000));
#258=CARTESIAN_POINT('', (-0.098017, -0.995185, 160.000000));
#259=CARTESIAN_POINT('', (-0.000000, -1.000000, 160.000000));
#260=CARTESIAN_POINT('', (0.098017, -0.995185, 160.000000));
#261=CARTESIAN_POINT('', (0.195090, -0.980785, 160.000000));
#262=CARTESIAN_POINT('', (0.290285, -0.956940, 160.000000));
#263=CARTESIAN_POINT('', (0.382683, -0.923880, 160.000000));
#264=CARTESIAN_POINT('', (0.471397, -0.881921, 160.000000));
#265=CARTESIAN_POINT('', (0.555570, -0.831470, 160.000000));
#266=CARTESIAN_POINT('', (0.634393, -0.773010, 160.000000));
#267=CARTESIAN_POINT('', (0.707107, -0.707107, 160.000000));
#268=CARTESIAN_POINT('', (0.773010, -0.634393, 160.000000));
#269=CARTESIAN_POINT('', (0.831470, -0.555570, 160.000000));
#270=CARTESIAN_POINT('', (0.881921, -0.471397, 160.000000));
#271=CARTESIAN_POINT('', (0.923880, -0.382683, 160.000000));
#272=CARTESIAN_POINT('', (0.956940, -0.290285, 160.000000));
#273=CARTESIAN_POINT('', (0.980785, -0.195090, 160.000000));
#274=CARTESIAN_POINT('', (0.995185, -0.098017, 160.000000));
#275=POLY_LOOP('', (#19, #20, #84));
#276=FACE_OUTER_BOUND('', #275, .T.);
#277=FACE_SURFACE('', (#276), #278, .T.);
#278=PLANE('', #9);
#280=POLY_LOOP('', (#19, #84, #83));
#281=FACE_OUTER_BOUND('', #280, .T.);
#282=FACE_SURFACE('', (#281), #283, .T.);
#283=PLANE('', #9);
#285=POLY_LOOP('', (#20, #21, #85));
#286=FACE_OUTER_BOUND('', #285, .T.);
#287=FACE_SURFACE('', (#286), #288, .T.);
#288=PLANE('', #9);
#290=POLY_LOOP('', (#20, #85, #84));
#291=FACE_OUTER_BOUND('', #290, .T.);
#292=FACE_SURFACE('', (#291), #293, .T.);
#293=PLANE('', #9);
#295=POLY_LOOP('', (#21, #22, #86));
#296=FACE_OUTER_BOUND('', #295, .T.);
#297=FACE_SURFACE('', (#296), #298, .T.);
#298=PLANE('', #9);
#300=POLY_LOOP('', (#21, #86, #85));
#301=FACE_OUTER_BOUND('', #300, .T.);
#302=FACE_SURFACE('', (#301), #303, .T.);
#303=PLANE('', #9);
#305=POLY_LOOP('', (#22, #23, #87));
#306=FACE_OUTER_BOUND('', #305, .T.);
#307=FACE_SURFACE('', (#306), #308, .T.);
#308=PLANE('', #9);
#310=POLY_LOOP('', (#22, #87, #86));
#311=FACE_OUTER_BOUND('', #310, .T.);
#312=FACE_SURFACE('', (#311), #313, .T.);
#313=PLANE('', #9);
#315=POLY_LOOP('', (#23, #24, #88));
#316=FACE_OUTER_BOUND('', #315, .T.);
#317=FACE_SURFACE('', (#316), #318, .T.);
#318=PLANE('', #9);
#320=POLY_LOOP('', (#23, #88, #87));
#321=FACE_OUTER_BOUND('', #320, .T.);
#322=FACE_SURFACE('', (#321), #323, .T.);
#323=PLANE('', #9);
#325=POLY_LOOP('', (#24, #25, #89));
#326=FACE_OUTER_BOUND('', #325, .T.);
#327=FACE_SURFACE('', (#326), #328, .T.);
#328=PLANE('', #9);
#330=POLY_LOOP('', (#24, #89, #88));
#331=FACE_OUTER_BOUND('', #330, .T.);
#332=FACE_SURFACE('', (#331), #333, .T.);
#333=PLANE('', #9);
#335=POLY_LOOP('', (#25, #26, #90));
#336=FACE_OUTER_BOUND('', #335, .T.);
#337=FACE_SURFACE('', (#336), #338, .T.);
#338=PLANE('', #9);
#340=POLY_LOOP('', (#25, #90, #89));
#341=FACE_OUTER_BOUND('', #340, .T.);
#342=FACE_SURFACE('', (#341), #343, .T.);
#343=PLANE('', #9);
#345=POLY_LOOP('', (#26, #27, #91));
#346=FACE_OUTER_BOUND('', #345, .T.);
#347=FACE_SURFACE('', (#346), #348, .T.);
#348=PLANE('', #9);
#350=POLY_LOOP('', (#26, #91, #90));
#351=FACE_OUTER_BOUND('', #350, .T.);
#352=FACE_SURFACE('', (#351), #353, .T.);
#353=PLANE('', #9);
#355=POLY_LOOP('', (#27, #28, #92));
#356=FACE_OUTER_BOUND('', #355, .T.);
#357=FACE_SURFACE('', (#356), #358, .T.);
#358=PLANE('', #9);
#360=POLY_LOOP('', (#27, #92, #91));
#361=FACE_OUTER_BOUND('', #360, .T.);
#362=FACE_SURFACE('', (#361), #363, .T.);
#363=PLANE('', #9);
#365=POLY_LOOP('', (#28, #29, #93));
#366=FACE_OUTER_BOUND('', #365, .T.);
#367=FACE_SURFACE('', (#366), #368, .T.);
#368=PLANE('', #9);
#370=POLY_LOOP('', (#28, #93, #92));
#371=FACE_OUTER_BOUND('', #370, .T.);
#372=FACE_SURFACE('', (#371), #373, .T.);
#373=PLANE('', #9);
#375=POLY_LOOP('', (#29, #30, #94));
#376=FACE_OUTER_BOUND('', #375, .T.);
#377=FACE_SURFACE('', (#376), #378, .T.);
#378=PLANE('', #9);
#380=POLY_LOOP('', (#29, #94, #93));
#381=FACE_OUTER_BOUND('', #380, .T.);
#382=FACE_SURFACE('', (#381), #383, .T.);
#383=PLANE('', #9);
#385=POLY_LOOP('', (#30, #31, #95));
#386=FACE_OUTER_BOUND('', #385, .T.);
#387=FACE_SURFACE('', (#386), #388, .T.);
#388=PLANE('', #9);
#390=POLY_LOOP('', (#30, #95, #94));
#391=FACE_OUTER_BOUND('', #390, .T.);
#392=FACE_SURFACE('', (#391), #393, .T.);
#393=PLANE('', #9);
#395=POLY_LOOP('', (#31, #32, #96));
#396=FACE_OUTER_BOUND('', #395, .T.);
#397=FACE_SURFACE('', (#396), #398, .T.);
#398=PLANE('', #9);
#400=POLY_LOOP('', (#31, #96, #95));
#401=FACE_OUTER_BOUND('', #400, .T.);
#402=FACE_SURFACE('', (#401), #403, .T.);
#403=PLANE('', #9);
#405=POLY_LOOP('', (#32, #33, #97));
#406=FACE_OUTER_BOUND('', #405, .T.);
#407=FACE_SURFACE('', (#406), #408, .T.);
#408=PLANE('', #9);
#410=POLY_LOOP('', (#32, #97, #96));
#411=FACE_OUTER_BOUND('', #410, .T.);
#412=FACE_SURFACE('', (#411), #413, .T.);
#413=PLANE('', #9);
#415=POLY_LOOP('', (#33, #34, #98));
#416=FACE_OUTER_BOUND('', #415, .T.);
#417=FACE_SURFACE('', (#416), #418, .T.);
#418=PLANE('', #9);
#420=POLY_LOOP('', (#33, #98, #97));
#421=FACE_OUTER_BOUND('', #420, .T.);
#422=FACE_SURFACE('', (#421), #423, .T.);
#423=PLANE('', #9);
#425=POLY_LOOP('', (#34, #35, #99));
#426=FACE_OUTER_BOUND('', #425, .T.);
#427=FACE_SURFACE('', (#426), #428, .T.);
#428=PLANE('', #9);
#430=POLY_LOOP('', (#34, #99, #98));
#431=FACE_OUTER_BOUND('', #430, .T.);
#432=FACE_SURFACE('', (#431), #433, .T.);
#433=PLANE('', #9);
#435=POLY_LOOP('', (#35, #36, #100));
#436=FACE_OUTER_BOUND('', #435, .T.);
#437=FACE_SURFACE('', (#436), #438, .T.);
#438=PLANE('', #9);
#440=POLY_LOOP('', (#35, #100, #99));
#441=FACE_OUTER_BOUND('', #440, .T.);
#442=FACE_SURFACE('', (#441), #443, .T.);
#443=PLANE('', #9);
#445=POLY_LOOP('', (#36, #37, #101));
#446=FACE_OUTER_BOUND('', #445, .T.);
#447=FACE_SURFACE('', (#446), #448, .T.);
#448=PLANE('', #9);
#450=POLY_LOOP('', (#36, #101, #100));
#451=FACE_OUTER_BOUND('', #450, .T.);
#452=FACE_SURFACE('', (#451), #453, .T.);
#453=PLANE('', #9);
#455=POLY_LOOP('', (#37, #38, #102));
#456=FACE_OUTER_BOUND('', #455, .T.);
#457=FACE_SURFACE('', (#456), #458, .T.);
#458=PLANE('', #9);
#460=POLY_LOOP('', (#37, #102, #101));
#461=FACE_OUTER_BOUND('', #460, .T.);
#462=FACE_SURFACE('', (#461), #463, .T.);
#463=PLANE('', #9);
#465=POLY_LOOP('', (#38, #39, #103));
#466=FACE_OUTER_BOUND('', #465, .T.);
#467=FACE_SURFACE('', (#466), #468, .T.);
#468=PLANE('', #9);
#470=POLY_LOOP('', (#38, #103, #102));
#471=FACE_OUTER_BOUND('', #470, .T.);
#472=FACE_SURFACE('', (#471), #473, .T.);
#473=PLANE('', #9);
#475=POLY_LOOP('', (#39, #40, #104));
#476=FACE_OUTER_BOUND('', #475, .T.);
#477=FACE_SURFACE('', (#476), #478, .T.);
#478=PLANE('', #9);
#480=POLY_LOOP('', (#39, #104, #103));
#481=FACE_OUTER_BOUND('', #480, .T.);
#482=FACE_SURFACE('', (#481), #483, .T.);
#483=PLANE('', #9);
#485=POLY_LOOP('', (#40, #41, #105));
#486=FACE_OUTER_BOUND('', #485, .T.);
#487=FACE_SURFACE('', (#486), #488, .T.);
#488=PLANE('', #9);
#490=POLY_LOOP('', (#40, #105, #104));
#491=FACE_OUTER_BOUND('', #490, .T.);
#492=FACE_SURFACE('', (#491), #493, .T.);
#493=PLANE('', #9);
#495=POLY_LOOP('', (#41, #42, #106));
#496=FACE_OUTER_BOUND('', #495, .T.);
#497=FACE_SURFACE('', (#496), #498, .T.);
#498=PLANE('', #9);
#500=POLY_LOOP('', (#41, #106, #105));
#501=FACE_OUTER_BOUND('', #500, .T.);
#502=FACE_SURFACE('', (#501), #503, .T.);
#503=PLANE('', #9);
#505=POLY_LOOP('', (#42, #43, #107));
#506=FACE_OUTER_BOUND('', #505, .T.);
#507=FACE_SURFACE('', (#506), #508, .T.);
#508=PLANE('', #9);
#510=POLY_LOOP('', (#42, #107, #106));
#511=FACE_OUTER_BOUND('', #510, .T.);
#512=FACE_SURFACE('', (#511), #513, .T.);
#513=PLANE('', #9);
#515=POLY_LOOP('', (#43, #44, #108));
#516=FACE_OUTER_BOUND('', #515, .T.);
#517=FACE_SURFACE('', (#516), #518, .T.);
#518=PLANE('', #9);
#520=POLY_LOOP('', (#43, #108, #107));
#521=FACE_OUTER_BOUND('', #520, .T.);
#522=FACE_SURFACE('', (#521), #523, .T.);
#523=PLANE('', #9);
#525=POLY_LOOP('', (#44, #45, #109));
#526=FACE_OUTER_BOUND('', #525, .T.);
#527=FACE_SURFACE('', (#526), #528, .T.);
#528=PLANE('', #9);
#530=POLY_LOOP('', (#44, #109, #108));
#531=FACE_OUTER_BOUND('', #530, .T.);
#532=FACE_SURFACE('', (#531), #533, .T.);
#533=PLANE('', #9);
#535=POLY_LOOP('', (#45, #46, #110));
#536=FACE_OUTER_BOUND('', #535, .T.);
#537=FACE_SURFACE('', (#536), #538, .T.);
#538=PLANE('', #9);
#540=POLY_LOOP('', (#45, #110, #109));
#541=FACE_OUTER_BOUND('', #540, .T.);
#542=FACE_SURFACE('', (#541), #543, .T.);
#543=PLANE('', #9);
#545=POLY_LOOP('', (#46, #47, #111));
#546=FACE_OUTER_BOUND('', #545, .T.);
#547=FACE_SURFACE('', (#546), #548, .T.);
#548=PLANE('', #9);
#550=POLY_LOOP('', (#46, #111, #110));
#551=FACE_OUTER_BOUND('', #550, .T.);
#552=FACE_SURFACE('', (#551), #553, .T.);
#553=PLANE('', #9);
#555=POLY_LOOP('', (#47, #48, #112));
#556=FACE_OUTER_BOUND('', #555, .T.);
#557=FACE_SURFACE('', (#556), #558, .T.);
#558=PLANE('', #9);
#560=POLY_LOOP('', (#47, #112, #111));
#561=FACE_OUTER_BOUND('', #560, .T.);
#562=FACE_SURFACE('', (#561), #563, .T.);
#563=PLANE('', #9);
#565=POLY_LOOP('', (#48, #49, #113));
#566=FACE_OUTER_BOUND('', #565, .T.);
#567=FACE_SURFACE('', (#566), #568, .T.);
#568=PLANE('', #9);
#570=POLY_LOOP('', (#48, #113, #112));
#571=FACE_OUTER_BOUND('', #570, .T.);
#572=FACE_SURFACE('', (#571), #573, .T.);
#573=PLANE('', #9);
#575=POLY_LOOP('', (#49, #50, #114));
#576=FACE_OUTER_BOUND('', #575, .T.);
#577=FACE_SURFACE('', (#576), #578, .T.);
#578=PLANE('', #9);
#580=POLY_LOOP('', (#49, #114, #113));
#581=FACE_OUTER_BOUND('', #580, .T.);
#582=FACE_SURFACE('', (#581), #583, .T.);
#583=PLANE('', #9);
#585=POLY_LOOP('', (#50, #51, #115));
#586=FACE_OUTER_BOUND('', #585, .T.);
#587=FACE_SURFACE('', (#586), #588, .T.);
#588=PLANE('', #9);
#590=POLY_LOOP('', (#50, #115, #114));
#591=FACE_OUTER_BOUND('', #590, .T.);
#592=FACE_SURFACE('', (#591), #593, .T.);
#593=PLANE('', #9);
#595=POLY_LOOP('', (#51, #52, #116));
#596=FACE_OUTER_BOUND('', #595, .T.);
#597=FACE_SURFACE('', (#596), #598, .T.);
#598=PLANE('', #9);
#600=POLY_LOOP('', (#51, #116, #115));
#601=FACE_OUTER_BOUND('', #600, .T.);
#602=FACE_SURFACE('', (#601), #603, .T.);
#603=PLANE('', #9);
#605=POLY_LOOP('', (#52, #53, #117));
#606=FACE_OUTER_BOUND('', #605, .T.);
#607=FACE_SURFACE('', (#606), #608, .T.);
#608=PLANE('', #9);
#610=POLY_LOOP('', (#52, #117, #116));
#611=FACE_OUTER_BOUND('', #610, .T.);
#612=FACE_SURFACE('', (#611), #613, .T.);
#613=PLANE('', #9);
#615=POLY_LOOP('', (#53, #54, #118));
#616=FACE_OUTER_BOUND('', #615, .T.);
#617=FACE_SURFACE('', (#616), #618, .T.);
#618=PLANE('', #9);
#620=POLY_LOOP('', (#53, #118, #117));
#621=FACE_OUTER_BOUND('', #620, .T.);
#622=FACE_SURFACE('', (#621), #623, .T.);
#623=PLANE('', #9);
#625=POLY_LOOP('', (#54, #55, #119));
#626=FACE_OUTER_BOUND('', #625, .T.);
#627=FACE_SURFACE('', (#626), #628, .T.);
#628=PLANE('', #9);
#630=POLY_LOOP('', (#54, #119, #118));
#631=FACE_OUTER_BOUND('', #630, .T.);
#632=FACE_SURFACE('', (#631), #633, .T.);
#633=PLANE('', #9);
#635=POLY_LOOP('', (#55, #56, #120));
#636=FACE_OUTER_BOUND('', #635, .T.);
#637=FACE_SURFACE('', (#636), #638, .T.);
#638=PLANE('', #9);
#640=POLY_LOOP('', (#55, #120, #119));
#641=FACE_OUTER_BOUND('', #640, .T.);
#642=FACE_SURFACE('', (#641), #643, .T.);
#643=PLANE('', #9);
#645=POLY_LOOP('', (#56, #57, #121));
#646=FACE_OUTER_BOUND('', #645, .T.);
#647=FACE_SURFACE('', (#646), #648, .T.);
#648=PLANE('', #9);
#650=POLY_LOOP('', (#56, #121, #120));
#651=FACE_OUTER_BOUND('', #650, .T.);
#652=FACE_SURFACE('', (#651), #653, .T.);
#653=PLANE('', #9);
#655=POLY_LOOP('', (#57, #58, #122));
#656=FACE_OUTER_BOUND('', #655, .T.);
#657=FACE_SURFACE('', (#656), #658, .T.);
#658=PLANE('', #9);
#660=POLY_LOOP('', (#57, #122, #121));
#661=FACE_OUTER_BOUND('', #660, .T.);
#662=FACE_SURFACE('', (#661), #663, .T.);
#663=PLANE('', #9);
#665=POLY_LOOP('', (#58, #59, #123));
#666=FACE_OUTER_BOUND('', #665, .T.);
#667=FACE_SURFACE('', (#666), #668, .T.);
#668=PLANE('', #9);
#670=POLY_LOOP('', (#58, #123, #122));
#671=FACE_OUTER_BOUND('', #670, .T.);
#672=FACE_SURFACE('', (#671), #673, .T.);
#673=PLANE('', #9);
#675=POLY_LOOP('', (#59, #60, #124));
#676=FACE_OUTER_BOUND('', #675, .T.);
#677=FACE_SURFACE('', (#676), #678, .T.);
#678=PLANE('', #9);
#680=POLY_LOOP('', (#59, #124, #123));
#681=FACE_OUTER_BOUND('', #680, .T.);
#682=FACE_SURFACE('', (#681), #683, .T.);
#683=PLANE('', #9);
#685=POLY_LOOP('', (#60, #61, #125));
#686=FACE_OUTER_BOUND('', #685, .T.);
#687=FACE_SURFACE('', (#686), #688, .T.);
#688=PLANE('', #9);
#690=POLY_LOOP('', (#60, #125, #124));
#691=FACE_OUTER_BOUND('', #690, .T.);
#692=FACE_SURFACE('', (#691), #693, .T.);
#693=PLANE('', #9);
#695=POLY_LOOP('', (#61, #62, #126));
#696=FACE_OUTER_BOUND('', #695, .T.);
#697=FACE_SURFACE('', (#696), #698, .T.);
#698=PLANE('', #9);
#700=POLY_LOOP('', (#61, #126, #125));
#701=FACE_OUTER_BOUND('', #700, .T.);
#702=FACE_SURFACE('', (#701), #703, .T.);
#703=PLANE('', #9);
#705=POLY_LOOP('', (#62, #63, #127));
#706=FACE_OUTER_BOUND('', #705, .T.);
#707=FACE_SURFACE('', (#706), #708, .T.);
#708=PLANE('', #9);
#710=POLY_LOOP('', (#62, #127, #126));
#711=FACE_OUTER_BOUND('', #710, .T.);
#712=FACE_SURFACE('', (#711), #713, .T.);
#713=PLANE('', #9);
#715=POLY_LOOP('', (#63, #64, #128));
#716=FACE_OUTER_BOUND('', #715, .T.);
#717=FACE_SURFACE('', (#716), #718, .T.);
#718=PLANE('', #9);
#720=POLY_LOOP('', (#63, #128, #127));
#721=FACE_OUTER_BOUND('', #720, .T.);
#722=FACE_SURFACE('', (#721), #723, .T.);
#723=PLANE('', #9);
#725=POLY_LOOP('', (#64, #65, #129));
#726=FACE_OUTER_BOUND('', #725, .T.);
#727=FACE_SURFACE('', (#726), #728, .T.);
#728=PLANE('', #9);
#730=POLY_LOOP('', (#64, #129, #128));
#731=FACE_OUTER_BOUND('', #730, .T.);
#732=FACE_SURFACE('', (#731), #733, .T.);
#733=PLANE('', #9);
#735=POLY_LOOP('', (#65, #66, #130));
#736=FACE_OUTER_BOUND('', #735, .T.);
#737=FACE_SURFACE('', (#736), #738, .T.);
#738=PLANE('', #9);
#740=POLY_LOOP('', (#65, #130, #129));
#741=FACE_OUTER_BOUND('', #740, .T.);
#742=FACE_SURFACE('', (#741), #743, .T.);
#743=PLANE('', #9);
#745=POLY_LOOP('', (#66, #67, #131));
#746=FACE_OUTER_BOUND('', #745, .T.);
#747=FACE_SURFACE('', (#746), #748, .T.);
#748=PLANE('', #9);
#750=POLY_LOOP('', (#66, #131, #130));
#751=FACE_OUTER_BOUND('', #750, .T.);
#752=FACE_SURFACE('', (#751), #753, .T.);
#753=PLANE('', #9);
#755=POLY_LOOP('', (#67, #68, #132));
#756=FACE_OUTER_BOUND('', #755, .T.);
#757=FACE_SURFACE('', (#756), #758, .T.);
#758=PLANE('', #9);
#760=POLY_LOOP('', (#67, #132, #131));
#761=FACE_OUTER_BOUND('', #760, .T.);
#762=FACE_SURFACE('', (#761), #763, .T.);
#763=PLANE('', #9);
#765=POLY_LOOP('', (#68, #69, #133));
#766=FACE_OUTER_BOUND('', #765, .T.);
#767=FACE_SURFACE('', (#766), #768, .T.);
#768=PLANE('', #9);
#770=POLY_LOOP('', (#68, #133, #132));
#771=FACE_OUTER_BOUND('', #770, .T.);
#772=FACE_SURFACE('', (#771), #773, .T.);
#773=PLANE('', #9);
#775=POLY_LOOP('', (#69, #70, #134));
#776=FACE_OUTER_BOUND('', #775, .T.);
#777=FACE_SURFACE('', (#776), #778, .T.);
#778=PLANE('', #9);
#780=POLY_LOOP('', (#69, #134, #133));
#781=FACE_OUTER_BOUND('', #780, .T.);
#782=FACE_SURFACE('', (#781), #783, .T.);
#783=PLANE('', #9);
#785=POLY_LOOP('', (#70, #71, #135));
#786=FACE_OUTER_BOUND('', #785, .T.);
#787=FACE_SURFACE('', (#786), #788, .T.);
#788=PLANE('', #9);
#790=POLY_LOOP('', (#70, #135, #134));
#791=FACE_OUTER_BOUND('', #790, .T.);
#792=FACE_SURFACE('', (#791), #793, .T.);
#793=PLANE('', #9);
#795=POLY_LOOP('', (#71, #72, #136));
#796=FACE_OUTER_BOUND('', #795, .T.);
#797=FACE_SURFACE('', (#796), #798, .T.);
#798=PLANE('', #9);
#800=POLY_LOOP('', (#71, #136, #135));
#801=FACE_OUTER_BOUND('', #800, .T.);
#802=FACE_SURFACE('', (#801), #803, .T.);
#803=PLANE('', #9);
#805=POLY_LOOP('', (#72, #73, #137));
#806=FACE_OUTER_BOUND('', #805, .T.);
#807=FACE_SURFACE('', (#806), #808, .T.);
#808=PLANE('', #9);
#810=POLY_LOOP('', (#72, #137, #136));
#811=FACE_OUTER_BOUND('', #810, .T.);
#812=FACE_SURFACE('', (#811), #813, .T.);
#813=PLANE('', #9);
#815=POLY_LOOP('', (#73, #74, #138));
#816=FACE_OUTER_BOUND('', #815, .T.);
#817=FACE_SURFACE('', (#816), #818, .T.);
#818=PLANE('', #9);
#820=POLY_LOOP('', (#73, #138, #137));
#821=FACE_OUTER_BOUND('', #820, .T.);
#822=FACE_SURFACE('', (#821), #823, .T.);
#823=PLANE('', #9);
#825=POLY_LOOP('', (#74, #75, #139));
#826=FACE_OUTER_BOUND('', #825, .T.);
#827=FACE_SURFACE('', (#826), #828, .T.);
#828=PLANE('', #9);
#830=POLY_LOOP('', (#74, #139, #138));
#831=FACE_OUTER_BOUND('', #830, .T.);
#832=FACE_SURFACE('', (#831), #833, .T.);
#833=PLANE('', #9);
#835=POLY_LOOP('', (#75, #76, #140));
#836=FACE_OUTER_BOUND('', #835, .T.);
#837=FACE_SURFACE('', (#836), #838, .T.);
#838=PLANE('', #9);
#840=POLY_LOOP('', (#75, #140, #139));
#841=FACE_OUTER_BOUND('', #840, .T.);
#842=FACE_SURFACE('', (#841), #843, .T.);
#843=PLANE('', #9);
#845=POLY_LOOP('', (#76, #77, #141));
#846=FACE_OUTER_BOUND('', #845, .T.);
#847=FACE_SURFACE('', (#846), #848, .T.);
#848=PLANE('', #9);
#850=POLY_LOOP('', (#76, #141, #140));
#851=FACE_OUTER_BOUND('', #850, .T.);
#852=FACE_SURFACE('', (#851), #853, .T.);
#853=PLANE('', #9);
#855=POLY_LOOP('', (#77, #78, #142));
#856=FACE_OUTER_BOUND('', #855, .T.);
#857=FACE_SURFACE('', (#856), #858, .T.);
#858=PLANE('', #9);
#860=POLY_LOOP('', (#77, #142, #141));
#861=FACE_OUTER_BOUND('', #860, .T.);
#862=FACE_SURFACE('', (#861), #863, .T.);
#863=PLANE('', #9);
#865=POLY_LOOP('', (#78, #79, #143));
#866=FACE_OUTER_BOUND('', #865, .T.);
#867=FACE_SURFACE('', (#866), #868, .T.);
#868=PLANE('', #9);
#870=POLY_LOOP('', (#78, #143, #142));
#871=FACE_OUTER_BOUND('', #870, .T.);
#872=FACE_SURFACE('', (#871), #873, .T.);
#873=PLANE('', #9);
#875=POLY_LOOP('', (#79, #80, #144));
#876=FACE_OUTER_BOUND('', #875, .T.);
#877=FACE_SURFACE('', (#876), #878, .T.);
#878=PLANE('', #9);
#880=POLY_LOOP('', (#79, #144, #143));
#881=FACE_OUTER_BOUND('', #880, .T.);
#882=FACE_SURFACE('', (#881), #883, .T.);
#883=PLANE('', #9);
#885=POLY_LOOP('', (#80, #81, #145));
#886=FACE_OUTER_BOUND('', #885, .T.);
#887=FACE_SURFACE('', (#886), #888, .T.);
#888=PLANE('', #9);
#890=POLY_LOOP('', (#80, #145, #144));
#891=FACE_OUTER_BOUND('', #890, .T.);
#892=FACE_SURFACE('', (#891), #893, .T.);
#893=PLANE('', #9);
#895=POLY_LOOP('', (#81, #82, #146));
#896=FACE_OUTER_BOUND('', #895, .T.);
#897=FACE_SURFACE('', (#896), #898, .T.);
#898=PLANE('', #9);
#900=POLY_LOOP('', (#81, #146, #145));
#901=FACE_OUTER_BOUND('', #900, .T.);
#902=FACE_SURFACE('', (#901), #903, .T.);
#903=PLANE('', #9);
#905=POLY_LOOP('', (#82, #19, #83));
#906=FACE_OUTER_BOUND('', #905, .T.);
#907=FACE_SURFACE('', (#906), #908, .T.);
#908=PLANE('', #9);
#910=POLY_LOOP('', (#82, #83, #146));
#911=FACE_OUTER_BOUND('', #910, .T.);
#912=FACE_SURFACE('', (#911), #913, .T.);
#913=PLANE('', #9);
#915=POLY_LOOP('', (#147, #212, #148));
#916=FACE_OUTER_BOUND('', #915, .T.);
#917=FACE_SURFACE('', (#916), #918, .T.);
#918=PLANE('', #9);
#920=POLY_LOOP('', (#147, #211, #212));
#921=FACE_OUTER_BOUND('', #920, .T.);
#922=FACE_SURFACE('', (#921), #923, .T.);
#923=PLANE('', #9);
#925=POLY_LOOP('', (#148, #213, #149));
#926=FACE_OUTER_BOUND('', #925, .T.);
#927=FACE_SURFACE('', (#926), #928, .T.);
#928=PLANE('', #9);
#930=POLY_LOOP('', (#148, #212, #213));
#931=FACE_OUTER_BOUND('', #930, .T.);
#932=FACE_SURFACE('', (#931), #933, .T.);
#933=PLANE('', #9);
#935=POLY_LOOP('', (#149, #214, #150));
#936=FACE_OUTER_BOUND('', #935, .T.);
#937=FACE_SURFACE('', (#936), #938, .T.);
#938=PLANE('', #9);
#940=POLY_LOOP('', (#149, #213, #214));
#941=FACE_OUTER_BOUND('', #940, .T.);
#942=FACE_SURFACE('', (#941), #943, .T.);
#943=PLANE('', #9);
#945=POLY_LOOP('', (#150, #215, #151));
#946=FACE_OUTER_BOUND('', #945, .T.);
#947=FACE_SURFACE('', (#946), #948, .T.);
#948=PLANE('', #9);
#950=POLY_LOOP('', (#150, #214, #215));
#951=FACE_OUTER_BOUND('', #950, .T.);
#952=FACE_SURFACE('', (#951), #953, .T.);
#953=PLANE('', #9);
#955=POLY_LOOP('', (#151, #216, #152));
#956=FACE_OUTER_BOUND('', #955, .T.);
#957=FACE_SURFACE('', (#956), #958, .T.);
#958=PLANE('', #9);
#960=POLY_LOOP('', (#151, #215, #216));
#961=FACE_OUTER_BOUND('', #960, .T.);
#962=FACE_SURFACE('', (#961), #963, .T.);
#963=PLANE('', #9);
#965=POLY_LOOP('', (#152, #217, #153));
#966=FACE_OUTER_BOUND('', #965, .T.);
#967=FACE_SURFACE('', (#966), #968, .T.);
#968=PLANE('', #9);
#970=POLY_LOOP('', (#152, #216, #217));
#971=FACE_OUTER_BOUND('', #970, .T.);
#972=FACE_SURFACE('', (#971), #973, .T.);
#973=PLANE('', #9);
#975=POLY_LOOP('', (#153, #218, #154));
#976=FACE_OUTER_BOUND('', #975, .T.);
#977=FACE_SURFACE('', (#976), #978, .T.);
#978=PLANE('', #9);
#980=POLY_LOOP('', (#153, #217, #218));
#981=FACE_OUTER_BOUND('', #980, .T.);
#982=FACE_SURFACE('', (#981), #983, .T.);
#983=PLANE('', #9);
#985=POLY_LOOP('', (#154, #219, #155));
#986=FACE_OUTER_BOUND('', #985, .T.);
#987=FACE_SURFACE('', (#986), #988, .T.);
#988=PLANE('', #9);
#990=POLY_LOOP('', (#154, #218, #219));
#991=FACE_OUTER_BOUND('', #990, .T.);
#992=FACE_SURFACE('', (#991), #993, .T.);
#993=PLANE('', #9);
#995=POLY_LOOP('', (#155, #220, #156));
#996=FACE_OUTER_BOUND('', #995, .T.);
#997=FACE_SURFACE('', (#996), #998, .T.);
#998=PLANE('', #9);
#1000=POLY_LOOP('', (#155, #219, #220));
#1001=FACE_OUTER_BOUND('', #1000, .T.);
#1002=FACE_SURFACE('', (#1001), #1003, .T.);
#1003=PLANE('', #9);
#1005=POLY_LOOP('', (#156, #221, #157));
#1006=FACE_OUTER_BOUND('', #1005, .T.);
#1007=FACE_SURFACE('', (#1006), #1008, .T.);
#1008=PLANE('', #9);
#1010=POLY_LOOP('', (#156, #220, #221));
#1011=FACE_OUTER_BOUND('', #1010, .T.);
#1012=FACE_SURFACE('', (#1011), #1013, .T.);
#1013=PLANE('', #9);
#1015=POLY_LOOP('', (#157, #222, #158));
#1016=FACE_OUTER_BOUND('', #1015, .T.);
#1017=FACE_SURFACE('', (#1016), #1018, .T.);
#1018=PLANE('', #9);
#1020=POLY_LOOP('', (#157, #221, #222));
#1021=FACE_OUTER_BOUND('', #1020, .T.);
#1022=FACE_SURFACE('', (#1021), #1023, .T.);
#1023=PLANE('', #9);
#1025=POLY_LOOP('', (#158, #223, #159));
#1026=FACE_OUTER_BOUND('', #1025, .T.);
#1027=FACE_SURFACE('', (#1026), #1028, .T.);
#1028=PLANE('', #9);
#1030=POLY_LOOP('', (#158, #222, #223));
#1031=FACE_OUTER_BOUND('', #1030, .T.);
#1032=FACE_SURFACE('', (#1031), #1033, .T.);
#1033=PLANE('', #9);
#1035=POLY_LOOP('', (#159, #224, #160));
#1036=FACE_OUTER_BOUND('', #1035, .T.);
#1037=FACE_SURFACE('', (#1036), #1038, .T.);
#1038=PLANE('', #9);
#1040=POLY_LOOP('', (#159, #223, #224));
#1041=FACE_OUTER_BOUND('', #1040, .T.);
#1042=FACE_SURFACE('', (#1041), #1043, .T.);
#1043=PLANE('', #9);
#1045=POLY_LOOP('', (#160, #225, #161));
#1046=FACE_OUTER_BOUND('', #1045, .T.);
#1047=FACE_SURFACE('', (#1046), #1048, .T.);
#1048=PLANE('', #9);
#1050=POLY_LOOP('', (#160, #224, #225));
#1051=FACE_OUTER_BOUND('', #1050, .T.);
#1052=FACE_SURFACE('', (#1051), #1053, .T.);
#1053=PLANE('', #9);
#1055=POLY_LOOP('', (#161, #226, #162));
#1056=FACE_OUTER_BOUND('', #1055, .T.);
#1057=FACE_SURFACE('', (#1056), #1058, .T.);
#1058=PLANE('', #9);
#1060=POLY_LOOP('', (#161, #225, #226));
#1061=FACE_OUTER_BOUND('', #1060, .T.);
#1062=FACE_SURFACE('', (#1061), #1063, .T.);
#1063=PLANE('', #9);
#1065=POLY_LOOP('', (#162, #227, #163));
#1066=FACE_OUTER_BOUND('', #1065, .T.);
#1067=FACE_SURFACE('', (#1066), #1068, .T.);
#1068=PLANE('', #9);
#1070=POLY_LOOP('', (#162, #226, #227));
#1071=FACE_OUTER_BOUND('', #1070, .T.);
#1072=FACE_SURFACE('', (#1071), #1073, .T.);
#1073=PLANE('', #9);
#1075=POLY_LOOP('', (#163, #228, #164));
#1076=FACE_OUTER_BOUND('', #1075, .T.);
#1077=FACE_SURFACE('', (#1076), #1078, .T.);
#1078=PLANE('', #9);
#1080=POLY_LOOP('', (#163, #227, #228));
#1081=FACE_OUTER_BOUND('', #1080, .T.);
#1082=FACE_SURFACE('', (#1081), #1083, .T.);
#1083=PLANE('', #9);
#1085=POLY_LOOP('', (#164, #229, #165));
#1086=FACE_OUTER_BOUND('', #1085, .T.);
#1087=FACE_SURFACE('', (#1086), #1088, .T.);
#1088=PLANE('', #9);
#1090=POLY_LOOP('', (#164, #228, #229));
#1091=FACE_OUTER_BOUND('', #1090, .T.);
#1092=FACE_SURFACE('', (#1091), #1093, .T.);
#1093=PLANE('', #9);
#1095=POLY_LOOP('', (#165, #230, #166));
#1096=FACE_OUTER_BOUND('', #1095, .T.);
#1097=FACE_SURFACE('', (#1096), #1098, .T.);
#1098=PLANE('', #9);
#1100=POLY_LOOP('', (#165, #229, #230));
#1101=FACE_OUTER_BOUND('', #1100, .T.);
#1102=FACE_SURFACE('', (#1101), #1103, .T.);
#1103=PLANE('', #9);
#1105=POLY_LOOP('', (#166, #231, #167));
#1106=FACE_OUTER_BOUND('', #1105, .T.);
#1107=FACE_SURFACE('', (#1106), #1108, .T.);
#1108=PLANE('', #9);
#1110=POLY_LOOP('', (#166, #230, #231));
#1111=FACE_OUTER_BOUND('', #1110, .T.);
#1112=FACE_SURFACE('', (#1111), #1113, .T.);
#1113=PLANE('', #9);
#1115=POLY_LOOP('', (#167, #232, #168));
#1116=FACE_OUTER_BOUND('', #1115, .T.);
#1117=FACE_SURFACE('', (#1116), #1118, .T.);
#1118=PLANE('', #9);
#1120=POLY_LOOP('', (#167, #231, #232));
#1121=FACE_OUTER_BOUND('', #1120, .T.);
#1122=FACE_SURFACE('', (#1121), #1123, .T.);
#1123=PLANE('', #9);
#1125=POLY_LOOP('', (#168, #233, #169));
#1126=FACE_OUTER_BOUND('', #1125, .T.);
#1127=FACE_SURFACE('', (#1126), #1128, .T.);
#1128=PLANE('', #9);
#1130=POLY_LOOP('', (#168, #232, #233));
#1131=FACE_OUTER_BOUND('', #1130, .T.);
#1132=FACE_SURFACE('', (#1131), #1133, .T.);
#1133=PLANE('', #9);
#1135=POLY_LOOP('', (#169, #234, #170));
#1136=FACE_OUTER_BOUND('', #1135, .T.);
#1137=FACE_SURFACE('', (#1136), #1138, .T.);
#1138=PLANE('', #9);
#1140=POLY_LOOP('', (#169, #233, #234));
#1141=FACE_OUTER_BOUND('', #1140, .T.);
#1142=FACE_SURFACE('', (#1141), #1143, .T.);
#1143=PLANE('', #9);
#1145=POLY_LOOP('', (#170, #235, #171));
#1146=FACE_OUTER_BOUND('', #1145, .T.);
#1147=FACE_SURFACE('', (#1146), #1148, .T.);
#1148=PLANE('', #9);
#1150=POLY_LOOP('', (#170, #234, #235));
#1151=FACE_OUTER_BOUND('', #1150, .T.);
#1152=FACE_SURFACE('', (#1151), #1153, .T.);
#1153=PLANE('', #9);
#1155=POLY_LOOP('', (#171, #236, #172));
#1156=FACE_OUTER_BOUND('', #1155, .T.);
#1157=FACE_SURFACE('', (#1156), #1158, .T.);
#1158=PLANE('', #9);
#1160=POLY_LOOP('', (#171, #235, #236));
#1161=FACE_OUTER_BOUND('', #1160, .T.);
#1162=FACE_SURFACE('', (#1161), #1163, .T.);
#1163=PLANE('', #9);
#1165=POLY_LOOP('', (#172, #237, #173));
#1166=FACE_OUTER_BOUND('', #1165, .T.);
#1167=FACE_SURFACE('', (#1166), #1168, .T.);
#1168=PLANE('', #9);
#1170=POLY_LOOP('', (#172, #236, #237));
#1171=FACE_OUTER_BOUND('', #1170, .T.);
#1172=FACE_SURFACE('', (#1171), #1173, .T.);
#1173=PLANE('', #9);
#1175=POLY_LOOP('', (#173, #238, #174));
#1176=FACE_OUTER_BOUND('', #1175, .T.);
#1177=FACE_SURFACE('', (#1176), #1178, .T.);
#1178=PLANE('', #9);
#1180=POLY_LOOP('', (#173, #237, #238));
#1181=FACE_OUTER_BOUND('', #1180, .T.);
#1182=FACE_SURFACE('', (#1181), #1183, .T.);
#1183=PLANE('', #9);
#1185=POLY_LOOP('', (#174, #239, #175));
#1186=FACE_OUTER_BOUND('', #1185, .T.);
#1187=FACE_SURFACE('', (#1186), #1188, .T.);
#1188=PLANE('', #9);
#1190=POLY_LOOP('', (#174, #238, #239));
#1191=FACE_OUTER_BOUND('', #1190, .T.);
#1192=FACE_SURFACE('', (#1191), #1193, .T.);
#1193=PLANE('', #9);
#1195=POLY_LOOP('', (#175, #240, #176));
#1196=FACE_OUTER_BOUND('', #1195, .T.);
#1197=FACE_SURFACE('', (#1196), #1198, .T.);
#1198=PLANE('', #9);
#1200=POLY_LOOP('', (#175, #239, #240));
#1201=FACE_OUTER_BOUND('', #1200, .T.);
#1202=FACE_SURFACE('', (#1201), #1203, .T.);
#1203=PLANE('', #9);
#1205=POLY_LOOP('', (#176, #241, #177));
#1206=FACE_OUTER_BOUND('', #1205, .T.);
#1207=FACE_SURFACE('', (#1206), #1208, .T.);
#1208=PLANE('', #9);
#1210=POLY_LOOP('', (#176, #240, #241));
#1211=FACE_OUTER_BOUND('', #1210, .T.);
#1212=FACE_SURFACE('', (#1211), #1213, .T.);
#1213=PLANE('', #9);
#1215=POLY_LOOP('', (#177, #242, #178));
#1216=FACE_OUTER_BOUND('', #1215, .T.);
#1217=FACE_SURFACE('', (#1216), #1218, .T.);
#1218=PLANE('', #9);
#1220=POLY_LOOP('', (#177, #241, #242));
#1221=FACE_OUTER_BOUND('', #1220, .T.);
#1222=FACE_SURFACE('', (#1221), #1223, .T.);
#1223=PLANE('', #9);
#1225=POLY_LOOP('', (#178, #243, #179));
#1226=FACE_OUTER_BOUND('', #1225, .T.);
#1227=FACE_SURFACE('', (#1226), #1228, .T.);
#1228=PLANE('', #9);
#1230=POLY_LOOP('', (#178, #242, #243));
#1231=FACE_OUTER_BOUND('', #1230, .T.);
#1232=FACE_SURFACE('', (#1231), #1233, .T.);
#1233=PLANE('', #9);
#1235=POLY_LOOP('', (#179, #244, #180));
#1236=FACE_OUTER_BOUND('', #1235, .T.);
#1237=FACE_SURFACE('', (#1236), #1238, .T.);
#1238=PLANE('', #9);
#1240=POLY_LOOP('', (#179, #243, #244));
#1241=FACE_OUTER_BOUND('', #1240, .T.);
#1242=FACE_SURFACE('', (#1241), #1243, .T.);
#1243=PLANE('', #9);
#1245=POLY_LOOP('', (#180, #245, #181));
#1246=FACE_OUTER_BOUND('', #1245, .T.);
#1247=FACE_SURFACE('', (#1246), #1248, .T.);
#1248=PLANE('', #9);
#1250=POLY_LOOP('', (#180, #244, #245));
#1251=FACE_OUTER_BOUND('', #1250, .T.);
#1252=FACE_SURFACE('', (#1251), #1253, .T.);
#1253=PLANE('', #9);
#1255=POLY_LOOP('', (#181, #246, #182));
#1256=FACE_OUTER_BOUND('', #1255, .T.);
#1257=FACE_SURFACE('', (#1256), #1258, .T.);
#1258=PLANE('', #9);
#1260=POLY_LOOP('', (#181, #245, #246));
#1261=FACE_OUTER_BOUND('', #1260, .T.);
#1262=FACE_SURFACE('', (#1261), #1263, .T.);
#1263=PLANE('', #9);
#1265=POLY_LOOP('', (#182, #247, #183));
#1266=FACE_OUTER_BOUND('', #1265, .T.);
#1267=FACE_SURFACE('', (#1266), #1268, .T.);
#1268=PLANE('', #9);
#1270=POLY_LOOP('', (#182, #246, #247));
#1271=FACE_OUTER_BOUND('', #1270, .T.);
#1272=FACE_SURFACE('', (#1271), #1273, .T.);
#1273=PLANE('', #9);
#1275=POLY_LOOP('', (#183, #248, #184));
#1276=FACE_OUTER_BOUND('', #1275, .T.);
#1277=FACE_SURFACE('', (#1276), #1278, .T.);
#1278=PLANE('', #9);
#1280=POLY_LOOP('', (#183, #247, #248));
#1281=FACE_OUTER_BOUND('', #1280, .T.);
#1282=FACE_SURFACE('', (#1281), #1283, .T.);
#1283=PLANE('', #9);
#1285=POLY_LOOP('', (#184, #249, #185));
#1286=FACE_OUTER_BOUND('', #1285, .T.);
#1287=FACE_SURFACE('', (#1286), #1288, .T.);
#1288=PLANE('', #9);
#1290=POLY_LOOP('', (#184, #248, #249));
#1291=FACE_OUTER_BOUND('', #1290, .T.);
#1292=FACE_SURFACE('', (#1291), #1293, .T.);
#1293=PLANE('', #9);
#1295=POLY_LOOP('', (#185, #250, #186));
#1296=FACE_OUTER_BOUND('', #1295, .T.);
#1297=FACE_SURFACE('', (#1296), #1298, .T.);
#1298=PLANE('', #9);
#1300=POLY_LOOP('', (#185, #249, #250));
#1301=FACE_OUTER_BOUND('', #1300, .T.);
#1302=FACE_SURFACE('', (#1301), #1303, .T.);
#1303=PLANE('', #9);
#1305=POLY_LOOP('', (#186, #251, #187));
#1306=FACE_OUTER_BOUND('', #1305, .T.);
#1307=FACE_SURFACE('', (#1306), #1308, .T.);
#1308=PLANE('', #9);
#1310=POLY_LOOP('', (#186, #250, #251));
#1311=FACE_OUTER_BOUND('', #1310, .T.);
#1312=FACE_SURFACE('', (#1311), #1313, .T.);
#1313=PLANE('', #9);
#1315=POLY_LOOP('', (#187, #252, #188));
#1316=FACE_OUTER_BOUND('', #1315, .T.);
#1317=FACE_SURFACE('', (#1316), #1318, .T.);
#1318=PLANE('', #9);
#1320=POLY_LOOP('', (#187, #251, #252));
#1321=FACE_OUTER_BOUND('', #1320, .T.);
#1322=FACE_SURFACE('', (#1321), #1323, .T.);
#1323=PLANE('', #9);
#1325=POLY_LOOP('', (#188, #253, #189));
#1326=FACE_OUTER_BOUND('', #1325, .T.);
#1327=FACE_SURFACE('', (#1326), #1328, .T.);
#1328=PLANE('', #9);
#1330=POLY_LOOP('', (#188, #252, #253));
#1331=FACE_OUTER_BOUND('', #1330, .T.);
#1332=FACE_SURFACE('', (#1331), #1333, .T.);
#1333=PLANE('', #9);
#1335=POLY_LOOP('', (#189, #254, #190));
#1336=FACE_OUTER_BOUND('', #1335, .T.);
#1337=FACE_SURFACE('', (#1336), #1338, .T.);
#1338=PLANE('', #9);
#1340=POLY_LOOP('', (#189, #253, #254));
#1341=FACE_OUTER_BOUND('', #1340, .T.);
#1342=FACE_SURFACE('', (#1341), #1343, .T.);
#1343=PLANE('', #9);
#1345=POLY_LOOP('', (#190, #255, #191));
#1346=FACE_OUTER_BOUND('', #1345, .T.);
#1347=FACE_SURFACE('', (#1346), #1348, .T.);
#1348=PLANE('', #9);
#1350=POLY_LOOP('', (#190, #254, #255));
#1351=FACE_OUTER_BOUND('', #1350, .T.);
#1352=FACE_SURFACE('', (#1351), #1353, .T.);
#1353=PLANE('', #9);
#1355=POLY_LOOP('', (#191, #256, #192));
#1356=FACE_OUTER_BOUND('', #1355, .T.);
#1357=FACE_SURFACE('', (#1356), #1358, .T.);
#1358=PLANE('', #9);
#1360=POLY_LOOP('', (#191, #255, #256));
#1361=FACE_OUTER_BOUND('', #1360, .T.);
#1362=FACE_SURFACE('', (#1361), #1363, .T.);
#1363=PLANE('', #9);
#1365=POLY_LOOP('', (#192, #257, #193));
#1366=FACE_OUTER_BOUND('', #1365, .T.);
#1367=FACE_SURFACE('', (#1366), #1368, .T.);
#1368=PLANE('', #9);
#1370=POLY_LOOP('', (#192, #256, #257));
#1371=FACE_OUTER_BOUND('', #1370, .T.);
#1372=FACE_SURFACE('', (#1371), #1373, .T.);
#1373=PLANE('', #9);
#1375=POLY_LOOP('', (#193, #258, #194));
#1376=FACE_OUTER_BOUND('', #1375, .T.);
#1377=FACE_SURFACE('', (#1376), #1378, .T.);
#1378=PLANE('', #9);
#1380=POLY_LOOP('', (#193, #257, #258));
#1381=FACE_OUTER_BOUND('', #1380, .T.);
#1382=FACE_SURFACE('', (#1381), #1383, .T.);
#1383=PLANE('', #9);
#1385=POLY_LOOP('', (#194, #259, #195));
#1386=FACE_OUTER_BOUND('', #1385, .T.);
#1387=FACE_SURFACE('', (#1386), #1388, .T.);
#1388=PLANE('', #9);
#1390=POLY_LOOP('', (#194, #258, #259));
#1391=FACE_OUTER_BOUND('', #1390, .T.);
#1392=FACE_SURFACE('', (#1391), #1393, .T.);
#1393=PLANE('', #9);
#1395=POLY_LOOP('', (#195, #260, #196));
#1396=FACE_OUTER_BOUND('', #1395, .T.);
#1397=FACE_SURFACE('', (#1396), #1398, .T.);
#1398=PLANE('', #9);
#1400=POLY_LOOP('', (#195, #259, #260));
#1401=FACE_OUTER_BOUND('', #1400, .T.);
#1402=FACE_SURFACE('', (#1401), #1403, .T.);
#1403=PLANE('', #9);
#1405=POLY_LOOP('', (#196, #261, #197));
#1406=FACE_OUTER_BOUND('', #1405, .T.);
#1407=FACE_SURFACE('', (#1406), #1408, .T.);
#1408=PLANE('', #9);
#1410=POLY_LOOP('', (#196, #260, #261));
#1411=FACE_OUTER_BOUND('', #1410, .T.);
#1412=FACE_SURFACE('', (#1411), #1413, .T.);
#1413=PLANE('', #9);
#1415=POLY_LOOP('', (#197, #262, #198));
#1416=FACE_OUTER_BOUND('', #1415, .T.);
#1417=FACE_SURFACE('', (#1416), #1418, .T.);
#1418=PLANE('', #9);
#1420=POLY_LOOP('', (#197, #261, #262));
#1421=FACE_OUTER_BOUND('', #1420, .T.);
#1422=FACE_SURFACE('', (#1421), #1423, .T.);
#1423=PLANE('', #9);
#1425=POLY_LOOP('', (#198, #263, #199));
#1426=FACE_OUTER_BOUND('', #1425, .T.);
#1427=FACE_SURFACE('', (#1426), #1428, .T.);
#1428=PLANE('', #9);
#1430=POLY_LOOP('', (#198, #262, #263));
#1431=FACE_OUTER_BOUND('', #1430, .T.);
#1432=FACE_SURFACE('', (#1431), #1433, .T.);
#1433=PLANE('', #9);
#1435=POLY_LOOP('', (#199, #264, #200));
#1436=FACE_OUTER_BOUND('', #1435, .T.);
#1437=FACE_SURFACE('', (#1436), #1438, .T.);
#1438=PLANE('', #9);
#1440=POLY_LOOP('', (#199, #263, #264));
#1441=FACE_OUTER_BOUND('', #1440, .T.);
#1442=FACE_SURFACE('', (#1441), #1443, .T.);
#1443=PLANE('', #9);
#1445=POLY_LOOP('', (#200, #265, #201));
#1446=FACE_OUTER_BOUND('', #1445, .T.);
#1447=FACE_SURFACE('', (#1446), #1448, .T.);
#1448=PLANE('', #9);
#1450=POLY_LOOP('', (#200, #264, #265));
#1451=FACE_OUTER_BOUND('', #1450, .T.);
#1452=FACE_SURFACE('', (#1451), #1453, .T.);
#1453=PLANE('', #9);
#1455=POLY_LOOP('', (#201, #266, #202));
#1456=FACE_OUTER_BOUND('', #1455, .T.);
#1457=FACE_SURFACE('', (#1456), #1458, .T.);
#1458=PLANE('', #9);
#1460=POLY_LOOP('', (#201, #265, #266));
#1461=FACE_OUTER_BOUND('', #1460, .T.);
#1462=FACE_SURFACE('', (#1461), #1463, .T.);
#1463=PLANE('', #9);
#1465=POLY_LOOP('', (#202, #267, #203));
#1466=FACE_OUTER_BOUND('', #1465, .T.);
#1467=FACE_SURFACE('', (#1466), #1468, .T.);
#1468=PLANE('', #9);
#1470=POLY_LOOP('', (#202, #266, #267));
#1471=FACE_OUTER_BOUND('', #1470, .T.);
#1472=FACE_SURFACE('', (#1471), #1473, .T.);
#1473=PLANE('', #9);
#1475=POLY_LOOP('', (#203, #268, #204));
#1476=FACE_OUTER_BOUND('', #1475, .T.);
#1477=FACE_SURFACE('', (#1476), #1478, .T.);
#1478=PLANE('', #9);
#1480=POLY_LOOP('', (#203, #267, #268));
#1481=FACE_OUTER_BOUND('', #1480, .T.);
#1482=FACE_SURFACE('', (#1481), #1483, .T.);
#1483=PLANE('', #9);
#1485=POLY_LOOP('', (#204, #269, #205));
#1486=FACE_OUTER_BOUND('', #1485, .T.);
#1487=FACE_SURFACE('', (#1486), #1488, .T.);
#1488=PLANE('', #9);
#1490=POLY_LOOP('', (#204, #268, #269));
#1491=FACE_OUTER_BOUND('', #1490, .T.);
#1492=FACE_SURFACE('', (#1491), #1493, .T.);
#1493=PLANE('', #9);
#1495=POLY_LOOP('', (#205, #270, #206));
#1496=FACE_OUTER_BOUND('', #1495, .T.);
#1497=FACE_SURFACE('', (#1496), #1498, .T.);
#1498=PLANE('', #9);
#1500=POLY_LOOP('', (#205, #269, #270));
#1501=FACE_OUTER_BOUND('', #1500, .T.);
#1502=FACE_SURFACE('', (#1501), #1503, .T.);
#1503=PLANE('', #9);
#1505=POLY_LOOP('', (#206, #271, #207));
#1506=FACE_OUTER_BOUND('', #1505, .T.);
#1507=FACE_SURFACE('', (#1506), #1508, .T.);
#1508=PLANE('', #9);
#1510=POLY_LOOP('', (#206, #270, #271));
#1511=FACE_OUTER_BOUND('', #1510, .T.);
#1512=FACE_SURFACE('', (#1511), #1513, .T.);
#1513=PLANE('', #9);
#1515=POLY_LOOP('', (#207, #272, #208));
#1516=FACE_OUTER_BOUND('', #1515, .T.);
#1517=FACE_SURFACE('', (#1516), #1518, .T.);
#1518=PLANE('', #9);
#1520=POLY_LOOP('', (#207, #271, #272));
#1521=FACE_OUTER_BOUND('', #1520, .T.);
#1522=FACE_SURFACE('', (#1521), #1523, .T.);
#1523=PLANE('', #9);
#1525=POLY_LOOP('', (#208, #273, #209));
#1526=FACE_OUTER_BOUND('', #1525, .T.);
#1527=FACE_SURFACE('', (#1526), #1528, .T.);
#1528=PLANE('', #9);
#1530=POLY_LOOP('', (#208, #272, #273));
#1531=FACE_OUTER_BOUND('', #1530, .T.);
#1532=FACE_SURFACE('', (#1531), #1533, .T.);
#1533=PLANE('', #9);
#1535=POLY_LOOP('', (#209, #274, #210));
#1536=FACE_OUTER_BOUND('', #1535, .T.);
#1537=FACE_SURFACE('', (#1536), #1538, .T.);
#1538=PLANE('', #9);
#1540=POLY_LOOP('', (#209, #273, #274));
#1541=FACE_OUTER_BOUND('', #1540, .T.);
#1542=FACE_SURFACE('', (#1541), #1543, .T.);
#1543=PLANE('', #9);
#1545=POLY_LOOP('', (#210, #211, #147));
#1546=FACE_OUTER_BOUND('', #1545, .T.);
#1547=FACE_SURFACE('', (#1546), #1548, .T.);
#1548=PLANE('', #9);
#1550=POLY_LOOP('', (#210, #274, #211));
#1551=FACE_OUTER_BOUND('', #1550, .T.);
#1552=FACE_SURFACE('', (#1551), #1553, .T.);
#1553=PLANE('', #9);
#1555=POLY_LOOP('', (#19, #147, #148));
#1556=FACE_OUTER_BOUND('', #1555, .T.);
#1557=FACE_SURFACE('', (#1556), #1558, .T.);
#1558=PLANE('', #9);
#1560=POLY_LOOP('', (#19, #148, #20));
#1561=FACE_OUTER_BOUND('', #1560, .T.);
#1562=FACE_SURFACE('', (#1561), #1563, .T.);
#1563=PLANE('', #9);
#1565=POLY_LOOP('', (#20, #148, #149));
#1566=FACE_OUTER_BOUND('', #1565, .T.);
#1567=FACE_SURFACE('', (#1566), #1568, .T.);
#1568=PLANE('', #9);
#1570=POLY_LOOP('', (#20, #149, #21));
#1571=FACE_OUTER_BOUND('', #1570, .T.);
#1572=FACE_SURFACE('', (#1571), #1573, .T.);
#1573=PLANE('', #9);
#1575=POLY_LOOP('', (#21, #149, #150));
#1576=FACE_OUTER_BOUND('', #1575, .T.);
#1577=FACE_SURFACE('', (#1576), #1578, .T.);
#1578=PLANE('', #9);
#1580=POLY_LOOP('', (#21, #150, #22));
#1581=FACE_OUTER_BOUND('', #1580, .T.);
#1582=FACE_SURFACE('', (#1581), #1583, .T.);
#1583=PLANE('', #9);
#1585=POLY_LOOP('', (#22, #150, #151));
#1586=FACE_OUTER_BOUND('', #1585, .T.);
#1587=FACE_SURFACE('', (#1586), #1588, .T.);
#1588=PLANE('', #9);
#1590=POLY_LOOP('', (#22, #151, #23));
#1591=FACE_OUTER_BOUND('', #1590, .T.);
#1592=FACE_SURFACE('', (#1591), #1593, .T.);
#1593=PLANE('', #9);
#1595=POLY_LOOP('', (#23, #151, #152));
#1596=FACE_OUTER_BOUND('', #1595, .T.);
#1597=FACE_SURFACE('', (#1596), #1598, .T.);
#1598=PLANE('', #9);
#1600=POLY_LOOP('', (#23, #152, #24));
#1601=FACE_OUTER_BOUND('', #1600, .T.);
#1602=FACE_SURFACE('', (#1601), #1603, .T.);
#1603=PLANE('', #9);
#1605=POLY_LOOP('', (#24, #152, #153));
#1606=FACE_OUTER_BOUND('', #1605, .T.);
#1607=FACE_SURFACE('', (#1606), #1608, .T.);
#1608=PLANE('', #9);
#1610=POLY_LOOP('', (#24, #153, #25));
#1611=FACE_OUTER_BOUND('', #1610, .T.);
#1612=FACE_SURFACE('', (#1611), #1613, .T.);
#1613=PLANE('', #9);
#1615=POLY_LOOP('', (#25, #153, #154));
#1616=FACE_OUTER_BOUND('', #1615, .T.);
#1617=FACE_SURFACE('', (#1616), #1618, .T.);
#1618=PLANE('', #9);
#1620=POLY_LOOP('', (#25, #154, #26));
#1621=FACE_OUTER_BOUND('', #1620, .T.);
#1622=FACE_SURFACE('', (#1621), #1623, .T.);
#1623=PLANE('', #9);
#1625=POLY_LOOP('', (#26, #154, #155));
#1626=FACE_OUTER_BOUND('', #1625, .T.);
#1627=FACE_SURFACE('', (#1626), #1628, .T.);
#1628=PLANE('', #9);
#1630=POLY_LOOP('', (#26, #155, #27));
#1631=FACE_OUTER_BOUND('', #1630, .T.);
#1632=FACE_SURFACE('', (#1631), #1633, .T.);
#1633=PLANE('', #9);
#1635=POLY_LOOP('', (#27, #155, #156));
#1636=FACE_OUTER_BOUND('', #1635, .T.);
#1637=FACE_SURFACE('', (#1636), #1638, .T.);
#1638=PLANE('', #9);
#1640=POLY_LOOP('', (#27, #156, #28));
#1641=FACE_OUTER_BOUND('', #1640, .T.);
#1642=FACE_SURFACE('', (#1641), #1643, .T.);
#1643=PLANE('', #9);
#1645=POLY_LOOP('', (#28, #156, #157));
#1646=FACE_OUTER_BOUND('', #1645, .T.);
#1647=FACE_SURFACE('', (#1646), #1648, .T.);
#1648=PLANE('', #9);
#1650=POLY_LOOP('', (#28, #157, #29));
#1651=FACE_OUTER_BOUND('', #1650, .T.);
#1652=FACE_SURFACE('', (#1651), #1653, .T.);
#1653=PLANE('', #9);
#1655=POLY_LOOP('', (#29, #157, #158));
#1656=FACE_OUTER_BOUND('', #1655, .T.);
#1657=FACE_SURFACE('', (#1656), #1658, .T.);
#1658=PLANE('', #9);
#1660=POLY_LOOP('', (#29, #158, #30));
#1661=FACE_OUTER_BOUND('', #1660, .T.);
#1662=FACE_SURFACE('', (#1661), #1663, .T.);
#1663=PLANE('', #9);
#1665=POLY_LOOP('', (#30, #158, #159));
#1666=FACE_OUTER_BOUND('', #1665, .T.);
#1667=FACE_SURFACE('', (#1666), #1668, .T.);
#1668=PLANE('', #9);
#1670=POLY_LOOP('', (#30, #159, #31));
#1671=FACE_OUTER_BOUND('', #1670, .T.);
#1672=FACE_SURFACE('', (#1671), #1673, .T.);
#1673=PLANE('', #9);
#1675=POLY_LOOP('', (#31, #159, #160));
#1676=FACE_OUTER_BOUND('', #1675, .T.);
#1677=FACE_SURFACE('', (#1676), #1678, .T.);
#1678=PLANE('', #9);
#1680=POLY_LOOP('', (#31, #160, #32));
#1681=FACE_OUTER_BOUND('', #1680, .T.);
#1682=FACE_SURFACE('', (#1681), #1683, .T.);
#1683=PLANE('', #9);
#1685=POLY_LOOP('', (#32, #160, #161));
#1686=FACE_OUTER_BOUND('', #1685, .T.);
#1687=FACE_SURFACE('', (#1686), #1688, .T.);
#1688=PLANE('', #9);
#1690=POLY_LOOP('', (#32, #161, #33));
#1691=FACE_OUTER_BOUND('', #1690, .T.);
#1692=FACE_SURFACE('', (#1691), #1693, .T.);
#1693=PLANE('', #9);
#1695=POLY_LOOP('', (#33, #161, #162));
#1696=FACE_OUTER_BOUND('', #1695, .T.);
#1697=FACE_SURFACE('', (#1696), #1698, .T.);
#1698=PLANE('', #9);
#1700=POLY_LOOP('', (#33, #162, #34));
#1701=FACE_OUTER_BOUND('', #1700, .T.);
#1702=FACE_SURFACE('', (#1701), #1703, .T.);
#1703=PLANE('', #9);
#1705=POLY_LOOP('', (#34, #162, #163));
#1706=FACE_OUTER_BOUND('', #1705, .T.);
#1707=FACE_SURFACE('', (#1706), #1708, .T.);
#1708=PLANE('', #9);
#1710=POLY_LOOP('', (#34, #163, #35));
#1711=FACE_OUTER_BOUND('', #1710, .T.);
#1712=FACE_SURFACE('', (#1711), #1713, .T.);
#1713=PLANE('', #9);
#1715=POLY_LOOP('', (#35, #163, #164));
#1716=FACE_OUTER_BOUND('', #1715, .T.);
#1717=FACE_SURFACE('', (#1716), #1718, .T.);
#1718=PLANE('', #9);
#1720=POLY_LOOP('', (#35, #164, #36));
#1721=FACE_OUTER_BOUND('', #1720, .T.);
#1722=FACE_SURFACE('', (#1721), #1723, .T.);
#1723=PLANE('', #9);
#1725=POLY_LOOP('', (#36, #164, #165));
#1726=FACE_OUTER_BOUND('', #1725, .T.);
#1727=FACE_SURFACE('', (#1726), #1728, .T.);
#1728=PLANE('', #9);
#1730=POLY_LOOP('', (#36, #165, #37));
#1731=FACE_OUTER_BOUND('', #1730, .T.);
#1732=FACE_SURFACE('', (#1731), #1733, .T.);
#1733=PLANE('', #9);
#1735=POLY_LOOP('', (#37, #165, #166));
#1736=FACE_OUTER_BOUND('', #1735, .T.);
#1737=FACE_SURFACE('', (#1736), #1738, .T.);
#1738=PLANE('', #9);
#1740=POLY_LOOP('', (#37, #166, #38));
#1741=FACE_OUTER_BOUND('', #1740, .T.);
#1742=FACE_SURFACE('', (#1741), #1743, .T.);
#1743=PLANE('', #9);
#1745=POLY_LOOP('', (#38, #166, #167));
#1746=FACE_OUTER_BOUND('', #1745, .T.);
#1747=FACE_SURFACE('', (#1746), #1748, .T.);
#1748=PLANE('', #9);
#1750=POLY_LOOP('', (#38, #167, #39));
#1751=FACE_OUTER_BOUND('', #1750, .T.);
#1752=FACE_SURFACE('', (#1751), #1753, .T.);
#1753=PLANE('', #9);
#1755=POLY_LOOP('', (#39, #167, #168));
#1756=FACE_OUTER_BOUND('', #1755, .T.);
#1757=FACE_SURFACE('', (#1756), #1758, .T.);
#1758=PLANE('', #9);
#1760=POLY_LOOP('', (#39, #168, #40));
#1761=FACE_OUTER_BOUND('', #1760, .T.);
#1762=FACE_SURFACE('', (#1761), #1763, .T.);
#1763=PLANE('', #9);
#1765=POLY_LOOP('', (#40, #168, #169));
#1766=FACE_OUTER_BOUND('', #1765, .T.);
#1767=FACE_SURFACE('', (#1766), #1768, .T.);
#1768=PLANE('', #9);
#1770=POLY_LOOP('', (#40, #169, #41));
#1771=FACE_OUTER_BOUND('', #1770, .T.);
#1772=FACE_SURFACE('', (#1771), #1773, .T.);
#1773=PLANE('', #9);
#1775=POLY_LOOP('', (#41, #169, #170));
#1776=FACE_OUTER_BOUND('', #1775, .T.);
#1777=FACE_SURFACE('', (#1776), #1778, .T.);
#1778=PLANE('', #9);
#1780=POLY_LOOP('', (#41, #170, #42));
#1781=FACE_OUTER_BOUND('', #1780, .T.);
#1782=FACE_SURFACE('', (#1781), #1783, .T.);
#1783=PLANE('', #9);
#1785=POLY_LOOP('', (#42, #170, #171));
#1786=FACE_OUTER_BOUND('', #1785, .T.);
#1787=FACE_SURFACE('', (#1786), #1788, .T.);
#1788=PLANE('', #9);
#1790=POLY_LOOP('', (#42, #171, #43));
#1791=FACE_OUTER_BOUND('', #1790, .T.);
#1792=FACE_SURFACE('', (#1791), #1793, .T.);
#1793=PLANE('', #9);
#1795=POLY_LOOP('', (#43, #171, #172));
#1796=FACE_OUTER_BOUND('', #1795, .T.);
#1797=FACE_SURFACE('', (#1796), #1798, .T.);
#1798=PLANE('', #9);
#1800=POLY_LOOP('', (#43, #172, #44));
#1801=FACE_OUTER_BOUND('', #1800, .T.);
#1802=FACE_SURFACE('', (#1801), #1803, .T.);
#1803=PLANE('', #9);
#1805=POLY_LOOP('', (#44, #172, #173));
#1806=FACE_OUTER_BOUND('', #1805, .T.);
#1807=FACE_SURFACE('', (#1806), #1808, .T.);
#1808=PLANE('', #9);
#1810=POLY_LOOP('', (#44, #173, #45));
#1811=FACE_OUTER_BOUND('', #1810, .T.);
#1812=FACE_SURFACE('', (#1811), #1813, .T.);
#1813=PLANE('', #9);
#1815=POLY_LOOP('', (#45, #173, #174));
#1816=FACE_OUTER_BOUND('', #1815, .T.);
#1817=FACE_SURFACE('', (#1816), #1818, .T.);
#1818=PLANE('', #9);
#1820=POLY_LOOP('', (#45, #174, #46));
#1821=FACE_OUTER_BOUND('', #1820, .T.);
#1822=FACE_SURFACE('', (#1821), #1823, .T.);
#1823=PLANE('', #9);
#1825=POLY_LOOP('', (#46, #174, #175));
#1826=FACE_OUTER_BOUND('', #1825, .T.);
#1827=FACE_SURFACE('', (#1826), #1828, .T.);
#1828=PLANE('', #9);
#1830=POLY_LOOP('', (#46, #175, #47));
#1831=FACE_OUTER_BOUND('', #1830, .T.);
#1832=FACE_SURFACE('', (#1831), #1833, .T.);
#1833=PLANE('', #9);
#1835=POLY_LOOP('', (#47, #175, #176));
#1836=FACE_OUTER_BOUND('', #1835, .T.);
#1837=FACE_SURFACE('', (#1836), #1838, .T.);
#1838=PLANE('', #9);
#1840=POLY_LOOP('', (#47, #176, #48));
#1841=FACE_OUTER_BOUND('', #1840, .T.);
#1842=FACE_SURFACE('', (#1841), #1843, .T.);
#1843=PLANE('', #9);
#1845=POLY_LOOP('', (#48, #176, #177));
#1846=FACE_OUTER_BOUND('', #1845, .T.);
#1847=FACE_SURFACE('', (#1846), #1848, .T.);
#1848=PLANE('', #9);
#1850=POLY_LOOP('', (#48, #177, #49));
#1851=FACE_OUTER_BOUND('', #1850, .T.);
#1852=FACE_SURFACE('', (#1851), #1853, .T.);
#1853=PLANE('', #9);
#1855=POLY_LOOP('', (#49, #177, #178));
#1856=FACE_OUTER_BOUND('', #1855, .T.);
#1857=FACE_SURFACE('', (#1856), #1858, .T.);
#1858=PLANE('', #9);
#1860=POLY_LOOP('', (#49, #178, #50));
#1861=FACE_OUTER_BOUND('', #1860, .T.);
#1862=FACE_SURFACE('', (#1861), #1863, .T.);
#1863=PLANE('', #9);
#1865=POLY_LOOP('', (#50, #178, #179));
#1866=FACE_OUTER_BOUND('', #1865, .T.);
#1867=FACE_SURFACE('', (#1866), #1868, .T.);
#1868=PLANE('', #9);
#1870=POLY_LOOP('', (#50, #179, #51));
#1871=FACE_OUTER_BOUND('', #1870, .T.);
#1872=FACE_SURFACE('', (#1871), #1873, .T.);
#1873=PLANE('', #9);
#1875=POLY_LOOP('', (#51, #179, #180));
#1876=FACE_OUTER_BOUND('', #1875, .T.);
#1877=FACE_SURFACE('', (#1876), #1878, .T.);
#1878=PLANE('', #9);
#1880=POLY_LOOP('', (#51, #180, #52));
#1881=FACE_OUTER_BOUND('', #1880, .T.);
#1882=FACE_SURFACE('', (#1881), #1883, .T.);
#1883=PLANE('', #9);
#1885=POLY_LOOP('', (#52, #180, #181));
#1886=FACE_OUTER_BOUND('', #1885, .T.);
#1887=FACE_SURFACE('', (#1886), #1888, .T.);
#1888=PLANE('', #9);
#1890=POLY_LOOP('', (#52, #181, #53));
#1891=FACE_OUTER_BOUND('', #1890, .T.);
#1892=FACE_SURFACE('', (#1891), #1893, .T.);
#1893=PLANE('', #9);
#1895=POLY_LOOP('', (#53, #181, #182));
#1896=FACE_OUTER_BOUND('', #1895, .T.);
#1897=FACE_SURFACE('', (#1896), #1898, .T.);
#1898=PLANE('', #9);
#1900=POLY_LOOP('', (#53, #182, #54));
#1901=FACE_OUTER_BOUND('', #1900, .T.);
#1902=FACE_SURFACE('', (#1901), #1903, .T.);
#1903=PLANE('', #9);
#1905=POLY_LOOP('', (#54, #182, #183));
#1906=FACE_OUTER_BOUND('', #1905, .T.);
#1907=FACE_SURFACE('', (#1906), #1908, .T.);
#1908=PLANE('', #9);
#1910=POLY_LOOP('', (#54, #183, #55));
#1911=FACE_OUTER_BOUND('', #1910, .T.);
#1912=FACE_SURFACE('', (#1911), #1913, .T.);
#1913=PLANE('', #9);
#1915=POLY_LOOP('', (#55, #183, #184));
#1916=FACE_OUTER_BOUND('', #1915, .T.);
#1917=FACE_SURFACE('', (#1916), #1918, .T.);
#1918=PLANE('', #9);
#1920=POLY_LOOP('', (#55, #184, #56));
#1921=FACE_OUTER_BOUND('', #1920, .T.);
#1922=FACE_SURFACE('', (#1921), #1923, .T.);
#1923=PLANE('', #9);
#1925=POLY_LOOP('', (#56, #184, #185));
#1926=FACE_OUTER_BOUND('', #1925, .T.);
#1927=FACE_SURFACE('', (#1926), #1928, .T.);
#1928=PLANE('', #9);
#1930=POLY_LOOP('', (#56, #185, #57));
#1931=FACE_OUTER_BOUND('', #1930, .T.);
#1932=FACE_SURFACE('', (#1931), #1933, .T.);
#1933=PLANE('', #9);
#1935=POLY_LOOP('', (#57, #185, #186));
#1936=FACE_OUTER_BOUND('', #1935, .T.);
#1937=FACE_SURFACE('', (#1936), #1938, .T.);
#1938=PLANE('', #9);
#1940=POLY_LOOP('', (#57, #186, #58));
#1941=FACE_OUTER_BOUND('', #1940, .T.);
#1942=FACE_SURFACE('', (#1941), #1943, .T.);
#1943=PLANE('', #9);
#1945=POLY_LOOP('', (#58, #186, #187));
#1946=FACE_OUTER_BOUND('', #1945, .T.);
#1947=FACE_SURFACE('', (#1946), #1948, .T.);
#1948=PLANE('', #9);
#1950=POLY_LOOP('', (#58, #187, #59));
#1951=FACE_OUTER_BOUND('', #1950, .T.);
#1952=FACE_SURFACE('', (#1951), #1953, .T.);
#1953=PLANE('', #9);
#1955=POLY_LOOP('', (#59, #187, #188));
#1956=FACE_OUTER_BOUND('', #1955, .T.);
#1957=FACE_SURFACE('', (#1956), #1958, .T.);
#1958=PLANE('', #9);
#1960=POLY_LOOP('', (#59, #188, #60));
#1961=FACE_OUTER_BOUND('', #1960, .T.);
#1962=FACE_SURFACE('', (#1961), #1963, .T.);
#1963=PLANE('', #9);
#1965=POLY_LOOP('', (#60, #188, #189));
#1966=FACE_OUTER_BOUND('', #1965, .T.);
#1967=FACE_SURFACE('', (#1966), #1968, .T.);
#1968=PLANE('', #9);
#1970=POLY_LOOP('', (#60, #189, #61));
#1971=FACE_OUTER_BOUND('', #1970, .T.);
#1972=FACE_SURFACE('', (#1971), #1973, .T.);
#1973=PLANE('', #9);
#1975=POLY_LOOP('', (#61, #189, #190));
#1976=FACE_OUTER_BOUND('', #1975, .T.);
#1977=FACE_SURFACE('', (#1976), #1978, .T.);
#1978=PLANE('', #9);
#1980=POLY_LOOP('', (#61, #190, #62));
#1981=FACE_OUTER_BOUND('', #1980, .T.);
#1982=FACE_SURFACE('', (#1981), #1983, .T.);
#1983=PLANE('', #9);
#1985=POLY_LOOP('', (#62, #190, #191));
#1986=FACE_OUTER_BOUND('', #1985, .T.);
#1987=FACE_SURFACE('', (#1986), #1988, .T.);
#1988=PLANE('', #9);
#1990=POLY_LOOP('', (#62, #191, #63));
#1991=FACE_OUTER_BOUND('', #1990, .T.);
#1992=FACE_SURFACE('', (#1991), #1993, .T.);
#1993=PLANE('', #9);
#1995=POLY_LOOP('', (#63, #191, #192));
#1996=FACE_OUTER_BOUND('', #1995, .T.);
#1997=FACE_SURFACE('', (#1996), #1998, .T.);
#1998=PLANE('', #9);
#2000=POLY_LOOP('', (#63, #192, #64));
#2001=FACE_OUTER_BOUND('', #2000, .T.);
#2002=FACE_SURFACE('', (#2001), #2003, .T.);
#2003=PLANE('', #9);
#2005=POLY_LOOP('', (#64, #192, #193));
#2006=FACE_OUTER_BOUND('', #2005, .T.);
#2007=FACE_SURFACE('', (#2006), #2008, .T.);
#2008=PLANE('', #9);
#2010=POLY_LOOP('', (#64, #193, #65));
#2011=FACE_OUTER_BOUND('', #2010, .T.);
#2012=FACE_SURFACE('', (#2011), #2013, .T.);
#2013=PLANE('', #9);
#2015=POLY_LOOP('', (#65, #193, #194));
#2016=FACE_OUTER_BOUND('', #2015, .T.);
#2017=FACE_SURFACE('', (#2016), #2018, .T.);
#2018=PLANE('', #9);
#2020=POLY_LOOP('', (#65, #194, #66));
#2021=FACE_OUTER_BOUND('', #2020, .T.);
#2022=FACE_SURFACE('', (#2021), #2023, .T.);
#2023=PLANE('', #9);
#2025=POLY_LOOP('', (#66, #194, #195));
#2026=FACE_OUTER_BOUND('', #2025, .T.);
#2027=FACE_SURFACE('', (#2026), #2028, .T.);
#2028=PLANE('', #9);
#2030=POLY_LOOP('', (#66, #195, #67));
#2031=FACE_OUTER_BOUND('', #2030, .T.);
#2032=FACE_SURFACE('', (#2031), #2033, .T.);
#2033=PLANE('', #9);
#2035=POLY_LOOP('', (#67, #195, #196));
#2036=FACE_OUTER_BOUND('', #2035, .T.);
#2037=FACE_SURFACE('', (#2036), #2038, .T.);
#2038=PLANE('', #9);
#2040=POLY_LOOP('', (#67, #196, #68));
#2041=FACE_OUTER_BOUND('', #2040, .T.);
#2042=FACE_SURFACE('', (#2041), #2043, .T.);
#2043=PLANE('', #9);
#2045=POLY_LOOP('', (#68, #196, #197));
#2046=FACE_OUTER_BOUND('', #2045, .T.);
#2047=FACE_SURFACE('', (#2046), #2048, .T.);
#2048=PLANE('', #9);
#2050=POLY_LOOP('', (#68, #197, #69));
#2051=FACE_OUTER_BOUND('', #2050, .T.);
#2052=FACE_SURFACE('', (#2051), #2053, .T.);
#2053=PLANE('', #9);
#2055=POLY_LOOP('', (#69, #197, #198));
#2056=FACE_OUTER_BOUND('', #2055, .T.);
#2057=FACE_SURFACE('', (#2056), #2058, .T.);
#2058=PLANE('', #9);
#2060=POLY_LOOP('', (#69, #198, #70));
#2061=FACE_OUTER_BOUND('', #2060, .T.);
#2062=FACE_SURFACE('', (#2061), #2063, .T.);
#2063=PLANE('', #9);
#2065=POLY_LOOP('', (#70, #198, #199));
#2066=FACE_OUTER_BOUND('', #2065, .T.);
#2067=FACE_SURFACE('', (#2066), #2068, .T.);
#2068=PLANE('', #9);
#2070=POLY_LOOP('', (#70, #199, #71));
#2071=FACE_OUTER_BOUND('', #2070, .T.);
#2072=FACE_SURFACE('', (#2071), #2073, .T.);
#2073=PLANE('', #9);
#2075=POLY_LOOP('', (#71, #199, #200));
#2076=FACE_OUTER_BOUND('', #2075, .T.);
#2077=FACE_SURFACE('', (#2076), #2078, .T.);
#2078=PLANE('', #9);
#2080=POLY_LOOP('', (#71, #200, #72));
#2081=FACE_OUTER_BOUND('', #2080, .T.);
#2082=FACE_SURFACE('', (#2081), #2083, .T.);
#2083=PLANE('', #9);
#2085=POLY_LOOP('', (#72, #200, #201));
#2086=FACE_OUTER_BOUND('', #2085, .T.);
#2087=FACE_SURFACE('', (#2086), #2088, .T.);
#2088=PLANE('', #9);
#2090=POLY_LOOP('', (#72, #201, #73));
#2091=FACE_OUTER_BOUND('', #2090, .T.);
#2092=FACE_SURFACE('', (#2091), #2093, .T.);
#2093=PLANE('', #9);
#2095=POLY_LOOP('', (#73, #201, #202));
#2096=FACE_OUTER_BOUND('', #2095, .T.);
#2097=FACE_SURFACE('', (#2096), #2098, .T.);
#2098=PLANE('', #9);
#2100=POLY_LOOP('', (#73, #202, #74));
#2101=FACE_OUTER_BOUND('', #2100, .T.);
#2102=FACE_SURFACE('', (#2101), #2103, .T.);
#2103=PLANE('', #9);
#2105=POLY_LOOP('', (#74, #202, #203));
#2106=FACE_OUTER_BOUND('', #2105, .T.);
#2107=FACE_SURFACE('', (#2106), #2108, .T.);
#2108=PLANE('', #9);
#2110=POLY_LOOP('', (#74, #203, #75));
#2111=FACE_OUTER_BOUND('', #2110, .T.);
#2112=FACE_SURFACE('', (#2111), #2113, .T.);
#2113=PLANE('', #9);
#2115=POLY_LOOP('', (#75, #203, #204));
#2116=FACE_OUTER_BOUND('', #2115, .T.);
#2117=FACE_SURFACE('', (#2116), #2118, .T.);
#2118=PLANE('', #9);
#2120=POLY_LOOP('', (#75, #204, #76));
#2121=FACE_OUTER_BOUND('', #2120, .T.);
#2122=FACE_SURFACE('', (#2121), #2123, .T.);
#2123=PLANE('', #9);
#2125=POLY_LOOP('', (#76, #204, #205));
#2126=FACE_OUTER_BOUND('', #2125, .T.);
#2127=FACE_SURFACE('', (#2126), #2128, .T.);
#2128=PLANE('', #9);
#2130=POLY_LOOP('', (#76, #205, #77));
#2131=FACE_OUTER_BOUND('', #2130, .T.);
#2132=FACE_SURFACE('', (#2131), #2133, .T.);
#2133=PLANE('', #9);
#2135=POLY_LOOP('', (#77, #205, #206));
#2136=FACE_OUTER_BOUND('', #2135, .T.);
#2137=FACE_SURFACE('', (#2136), #2138, .T.);
#2138=PLANE('', #9);
#2140=POLY_LOOP('', (#77, #206, #78));
#2141=FACE_OUTER_BOUND('', #2140, .T.);
#2142=FACE_SURFACE('', (#2141), #2143, .T.);
#2143=PLANE('', #9);
#2145=POLY_LOOP('', (#78, #206, #207));
#2146=FACE_OUTER_BOUND('', #2145, .T.);
#2147=FACE_SURFACE('', (#2146), #2148, .T.);
#2148=PLANE('', #9);
#2150=POLY_LOOP('', (#78, #207, #79));
#2151=FACE_OUTER_BOUND('', #2150, .T.);
#2152=FACE_SURFACE('', (#2151), #2153, .T.);
#2153=PLANE('', #9);
#2155=POLY_LOOP('', (#79, #207, #208));
#2156=FACE_OUTER_BOUND('', #2155, .T.);
#2157=FACE_SURFACE('', (#2156), #2158, .T.);
#2158=PLANE('', #9);
#2160=POLY_LOOP('', (#79, #208, #80));
#2161=FACE_OUTER_BOUND('', #2160, .T.);
#2162=FACE_SURFACE('', (#2161), #2163, .T.);
#2163=PLANE('', #9);
#2165=POLY_LOOP('', (#80, #208, #209));
#2166=FACE_OUTER_BOUND('', #2165, .T.);
#2167=FACE_SURFACE('', (#2166), #2168, .T.);
#2168=PLANE('', #9);
#2170=POLY_LOOP('', (#80, #209, #81));
#2171=FACE_OUTER_BOUND('', #2170, .T.);
#2172=FACE_SURFACE('', (#2171), #2173, .T.);
#2173=PLANE('', #9);
#2175=POLY_LOOP('', (#81, #209, #210));
#2176=FACE_OUTER_BOUND('', #2175, .T.);
#2177=FACE_SURFACE('', (#2176), #2178, .T.);
#2178=PLANE('', #9);
#2180=POLY_LOOP('', (#81, #210, #82));
#2181=FACE_OUTER_BOUND('', #2180, .T.);
#2182=FACE_SURFACE('', (#2181), #2183, .T.);
#2183=PLANE('', #9);
#2185=POLY_LOOP('', (#82, #210, #147));
#2186=FACE_OUTER_BOUND('', #2185, .T.);
#2187=FACE_SURFACE('', (#2186), #2188, .T.);
#2188=PLANE('', #9);
#2190=POLY_LOOP('', (#82, #147, #19));
#2191=FACE_OUTER_BOUND('', #2190, .T.);
#2192=FACE_SURFACE('', (#2191), #2193, .T.);
#2193=PLANE('', #9);
#2195=POLY_LOOP('', (#83, #84, #212));
#2196=FACE_OUTER_BOUND('', #2195, .T.);
#2197=FACE_SURFACE('', (#2196), #2198, .T.);
#2198=PLANE('', #9);
#2200=POLY_LOOP('', (#83, #212, #211));
#2201=FACE_OUTER_BOUND('', #2200, .T.);
#2202=FACE_SURFACE('', (#2201), #2203, .T.);
#2203=PLANE('', #9);
#2205=POLY_LOOP('', (#84, #85, #213));
#2206=FACE_OUTER_BOUND('', #2205, .T.);
#2207=FACE_SURFACE('', (#2206), #2208, .T.);
#2208=PLANE('', #9);
#2210=POLY_LOOP('', (#84, #213, #212));
#2211=FACE_OUTER_BOUND('', #2210, .T.);
#2212=FACE_SURFACE('', (#2211), #2213, .T.);
#2213=PLANE('', #9);
#2215=POLY_LOOP('', (#85, #86, #214));
#2216=FACE_OUTER_BOUND('', #2215, .T.);
#2217=FACE_SURFACE('', (#2216), #2218, .T.);
#2218=PLANE('', #9);
#2220=POLY_LOOP('', (#85, #214, #213));
#2221=FACE_OUTER_BOUND('', #2220, .T.);
#2222=FACE_SURFACE('', (#2221), #2223, .T.);
#2223=PLANE('', #9);
#2225=POLY_LOOP('', (#86, #87, #215));
#2226=FACE_OUTER_BOUND('', #2225, .T.);
#2227=FACE_SURFACE('', (#2226), #2228, .T.);
#2228=PLANE('', #9);
#2230=POLY_LOOP('', (#86, #215, #214));
#2231=FACE_OUTER_BOUND('', #2230, .T.);
#2232=FACE_SURFACE('', (#2231), #2233, .T.);
#2233=PLANE('', #9);
#2235=POLY_LOOP('', (#87, #88, #216));
#2236=FACE_OUTER_BOUND('', #2235, .T.);
#2237=FACE_SURFACE('', (#2236), #2238, .T.);
#2238=PLANE('', #9);
#2240=POLY_LOOP('', (#87, #216, #215));
#2241=FACE_OUTER_BOUND('', #2240, .T.);
#2242=FACE_SURFACE('', (#2241), #2243, .T.);
#2243=PLANE('', #9);
#2245=POLY_LOOP('', (#88, #89, #217));
#2246=FACE_OUTER_BOUND('', #2245, .T.);
#2247=FACE_SURFACE('', (#2246), #2248, .T.);
#2248=PLANE('', #9);
#2250=POLY_LOOP('', (#88, #217, #216));
#2251=FACE_OUTER_BOUND('', #2250, .T.);
#2252=FACE_SURFACE('', (#2251), #2253, .T.);
#2253=PLANE('', #9);
#2255=POLY_LOOP('', (#89, #90, #218));
#2256=FACE_OUTER_BOUND('', #2255, .T.);
#2257=FACE_SURFACE('', (#2256), #2258, .T.);
#2258=PLANE('', #9);
#2260=POLY_LOOP('', (#89, #218, #217));
#2261=FACE_OUTER_BOUND('', #2260, .T.);
#2262=FACE_SURFACE('', (#2261), #2263, .T.);
#2263=PLANE('', #9);
#2265=POLY_LOOP('', (#90, #91, #219));
#2266=FACE_OUTER_BOUND('', #2265, .T.);
#2267=FACE_SURFACE('', (#2266), #2268, .T.);
#2268=PLANE('', #9);
#2270=POLY_LOOP('', (#90, #219, #218));
#2271=FACE_OUTER_BOUND('', #2270, .T.);
#2272=FACE_SURFACE('', (#2271), #2273, .T.);
#2273=PLANE('', #9);
#2275=POLY_LOOP('', (#91, #92, #220));
#2276=FACE_OUTER_BOUND('', #2275, .T.);
#2277=FACE_SURFACE('', (#2276), #2278, .T.);
#2278=PLANE('', #9);
#2280=POLY_LOOP('', (#91, #220, #219));
#2281=FACE_OUTER_BOUND('', #2280, .T.);
#2282=FACE_SURFACE('', (#2281), #2283, .T.);
#2283=PLANE('', #9);
#2285=POLY_LOOP('', (#92, #93, #221));
#2286=FACE_OUTER_BOUND('', #2285, .T.);
#2287=FACE_SURFACE('', (#2286), #2288, .T.);
#2288=PLANE('', #9);
#2290=POLY_LOOP('', (#92, #221, #220));
#2291=FACE_OUTER_BOUND('', #2290, .T.);
#2292=FACE_SURFACE('', (#2291), #2293, .T.);
#2293=PLANE('', #9);
#2295=POLY_LOOP('', (#93, #94, #222));
#2296=FACE_OUTER_BOUND('', #2295, .T.);
#2297=FACE_SURFACE('', (#2296), #2298, .T.);
#2298=PLANE('', #9);
#2300=POLY_LOOP('', (#93, #222, #221));
#2301=FACE_OUTER_BOUND('', #2300, .T.);
#2302=FACE_SURFACE('', (#2301), #2303, .T.);
#2303=PLANE('', #9);
#2305=POLY_LOOP('', (#94, #95, #223));
#2306=FACE_OUTER_BOUND('', #2305, .T.);
#2307=FACE_SURFACE('', (#2306), #2308, .T.);
#2308=PLANE('', #9);
#2310=POLY_LOOP('', (#94, #223, #222));
#2311=FACE_OUTER_BOUND('', #2310, .T.);
#2312=FACE_SURFACE('', (#2311), #2313, .T.);
#2313=PLANE('', #9);
#2315=POLY_LOOP('', (#95, #96, #224));
#2316=FACE_OUTER_BOUND('', #2315, .T.);
#2317=FACE_SURFACE('', (#2316), #2318, .T.);
#2318=PLANE('', #9);
#2320=POLY_LOOP('', (#95, #224, #223));
#2321=FACE_OUTER_BOUND('', #2320, .T.);
#2322=FACE_SURFACE('', (#2321), #2323, .T.);
#2323=PLANE('', #9);
#2325=POLY_LOOP('', (#96, #97, #225));
#2326=FACE_OUTER_BOUND('', #2325, .T.);
#2327=FACE_SURFACE('', (#2326), #2328, .T.);
#2328=PLANE('', #9);
#2330=POLY_LOOP('', (#96, #225, #224));
#2331=FACE_OUTER_BOUND('', #2330, .T.);
#2332=FACE_SURFACE('', (#2331), #2333, .T.);
#2333=PLANE('', #9);
#2335=POLY_LOOP('', (#97, #98, #226));
#2336=FACE_OUTER_BOUND('', #2335, .T.);
#2337=FACE_SURFACE('', (#2336), #2338, .T.);
#2338=PLANE('', #9);
#2340=POLY_LOOP('', (#97, #226, #225));
#2341=FACE_OUTER_BOUND('', #2340, .T.);
#2342=FACE_SURFACE('', (#2341), #2343, .T.);
#2343=PLANE('', #9);
#2345=POLY_LOOP('', (#98, #99, #227));
#2346=FACE_OUTER_BOUND('', #2345, .T.);
#2347=FACE_SURFACE('', (#2346), #2348, .T.);
#2348=PLANE('', #9);
#2350=POLY_LOOP('', (#98, #227, #226));
#2351=FACE_OUTER_BOUND('', #2350, .T.);
#2352=FACE_SURFACE('', (#2351), #2353, .T.);
#2353=PLANE('', #9);
#2355=POLY_LOOP('', (#99, #100, #228));
#2356=FACE_OUTER_BOUND('', #2355, .T.);
#2357=FACE_SURFACE('', (#2356), #2358, .T.);
#2358=PLANE('', #9);
#2360=POLY_LOOP('', (#99, #228, #227));
#2361=FACE_OUTER_BOUND('', #2360, .T.);
#2362=FACE_SURFACE('', (#2361), #2363, .T.);
#2363=PLANE('', #9);
#2365=POLY_LOOP('', (#100, #101, #229));
#2366=FACE_OUTER_BOUND('', #2365, .T.);
#2367=FACE_SURFACE('', (#2366), #2368, .T.);
#2368=PLANE('', #9);
#2370=POLY_LOOP('', (#100, #229, #228));
#2371=FACE_OUTER_BOUND('', #2370, .T.);
#2372=FACE_SURFACE('', (#2371), #2373, .T.);
#2373=PLANE('', #9);
#2375=POLY_LOOP('', (#101, #102, #230));
#2376=FACE_OUTER_BOUND('', #2375, .T.);
#2377=FACE_SURFACE('', (#2376), #2378, .T.);
#2378=PLANE('', #9);
#2380=POLY_LOOP('', (#101, #230, #229));
#2381=FACE_OUTER_BOUND('', #2380, .T.);
#2382=FACE_SURFACE('', (#2381), #2383, .T.);
#2383=PLANE('', #9);
#2385=POLY_LOOP('', (#102, #103, #231));
#2386=FACE_OUTER_BOUND('', #2385, .T.);
#2387=FACE_SURFACE('', (#2386), #2388, .T.);
#2388=PLANE('', #9);
#2390=POLY_LOOP('', (#102, #231, #230));
#2391=FACE_OUTER_BOUND('', #2390, .T.);
#2392=FACE_SURFACE('', (#2391), #2393, .T.);
#2393=PLANE('', #9);
#2395=POLY_LOOP('', (#103, #104, #232));
#2396=FACE_OUTER_BOUND('', #2395, .T.);
#2397=FACE_SURFACE('', (#2396), #2398, .T.);
#2398=PLANE('', #9);
#2400=POLY_LOOP('', (#103, #232, #231));
#2401=FACE_OUTER_BOUND('', #2400, .T.);
#2402=FACE_SURFACE('', (#2401), #2403, .T.);
#2403=PLANE('', #9);
#2405=POLY_LOOP('', (#104, #105, #233));
#2406=FACE_OUTER_BOUND('', #2405, .T.);
#2407=FACE_SURFACE('', (#2406), #2408, .T.);
#2408=PLANE('', #9);
#2410=POLY_LOOP('', (#104, #233, #232));
#2411=FACE_OUTER_BOUND('', #2410, .T.);
#2412=FACE_SURFACE('', (#2411), #2413, .T.);
#2413=PLANE('', #9);
#2415=POLY_LOOP('', (#105, #106, #234));
#2416=FACE_OUTER_BOUND('', #2415, .T.);
#2417=FACE_SURFACE('', (#2416), #2418, .T.);
#2418=PLANE('', #9);
#2420=POLY_LOOP('', (#105, #234, #233));
#2421=FACE_OUTER_BOUND('', #2420, .T.);
#2422=FACE_SURFACE('', (#2421), #2423, .T.);
#2423=PLANE('', #9);
#2425=POLY_LOOP('', (#106, #107, #235));
#2426=FACE_OUTER_BOUND('', #2425, .T.);
#2427=FACE_SURFACE('', (#2426), #2428, .T.);
#2428=PLANE('', #9);
#2430=POLY_LOOP('', (#106, #235, #234));
#2431=FACE_OUTER_BOUND('', #2430, .T.);
#2432=FACE_SURFACE('', (#2431), #2433, .T.);
#2433=PLANE('', #9);
#2435=POLY_LOOP('', (#107, #108, #236));
#2436=FACE_OUTER_BOUND('', #2435, .T.);
#2437=FACE_SURFACE('', (#2436), #2438, .T.);
#2438=PLANE('', #9);
#2440=POLY_LOOP('', (#107, #236, #235));
#2441=FACE_OUTER_BOUND('', #2440, .T.);
#2442=FACE_SURFACE('', (#2441), #2443, .T.);
#2443=PLANE('', #9);
#2445=POLY_LOOP('', (#108, #109, #237));
#2446=FACE_OUTER_BOUND('', #2445, .T.);
#2447=FACE_SURFACE('', (#2446), #2448, .T.);
#2448=PLANE('', #9);
#2450=POLY_LOOP('', (#108, #237, #236));
#2451=FACE_OUTER_BOUND('', #2450, .T.);
#2452=FACE_SURFACE('', (#2451), #2453, .T.);
#2453=PLANE('', #9);
#2455=POLY_LOOP('', (#109, #110, #238));
#2456=FACE_OUTER_BOUND('', #2455, .T.);
#2457=FACE_SURFACE('', (#2456), #2458, .T.);
#2458=PLANE('', #9);
#2460=POLY_LOOP('', (#109, #238, #237));
#2461=FACE_OUTER_BOUND('', #2460, .T.);
#2462=FACE_SURFACE('', (#2461), #2463, .T.);
#2463=PLANE('', #9);
#2465=POLY_LOOP('', (#110, #111, #239));
#2466=FACE_OUTER_BOUND('', #2465, .T.);
#2467=FACE_SURFACE('', (#2466), #2468, .T.);
#2468=PLANE('', #9);
#2470=POLY_LOOP('', (#110, #239, #238));
#2471=FACE_OUTER_BOUND('', #2470, .T.);
#2472=FACE_SURFACE('', (#2471), #2473, .T.);
#2473=PLANE('', #9);
#2475=POLY_LOOP('', (#111, #112, #240));
#2476=FACE_OUTER_BOUND('', #2475, .T.);
#2477=FACE_SURFACE('', (#2476), #2478, .T.);
#2478=PLANE('', #9);
#2480=POLY_LOOP('', (#111, #240, #239));
#2481=FACE_OUTER_BOUND('', #2480, .T.);
#2482=FACE_SURFACE('', (#2481), #2483, .T.);
#2483=PLANE('', #9);
#2485=POLY_LOOP('', (#112, #113, #241));
#2486=FACE_OUTER_BOUND('', #2485, .T.);
#2487=FACE_SURFACE('', (#2486), #2488, .T.);
#2488=PLANE('', #9);
#2490=POLY_LOOP('', (#112, #241, #240));
#2491=FACE_OUTER_BOUND('', #2490, .T.);
#2492=FACE_SURFACE('', (#2491), #2493, .T.);
#2493=PLANE('', #9);
#2495=POLY_LOOP('', (#113, #114, #242));
#2496=FACE_OUTER_BOUND('', #2495, .T.);
#2497=FACE_SURFACE('', (#2496), #2498, .T.);
#2498=PLANE('', #9);
#2500=POLY_LOOP('', (#113, #242, #241));
#2501=FACE_OUTER_BOUND('', #2500, .T.);
#2502=FACE_SURFACE('', (#2501), #2503, .T.);
#2503=PLANE('', #9);
#2505=POLY_LOOP('', (#114, #115, #243));
#2506=FACE_OUTER_BOUND('', #2505, .T.);
#2507=FACE_SURFACE('', (#2506), #2508, .T.);
#2508=PLANE('', #9);
#2510=POLY_LOOP('', (#114, #243, #242));
#2511=FACE_OUTER_BOUND('', #2510, .T.);
#2512=FACE_SURFACE('', (#2511), #2513, .T.);
#2513=PLANE('', #9);
#2515=POLY_LOOP('', (#115, #116, #244));
#2516=FACE_OUTER_BOUND('', #2515, .T.);
#2517=FACE_SURFACE('', (#2516), #2518, .T.);
#2518=PLANE('', #9);
#2520=POLY_LOOP('', (#115, #244, #243));
#2521=FACE_OUTER_BOUND('', #2520, .T.);
#2522=FACE_SURFACE('', (#2521), #2523, .T.);
#2523=PLANE('', #9);
#2525=POLY_LOOP('', (#116, #117, #245));
#2526=FACE_OUTER_BOUND('', #2525, .T.);
#2527=FACE_SURFACE('', (#2526), #2528, .T.);
#2528=PLANE('', #9);
#2530=POLY_LOOP('', (#116, #245, #244));
#2531=FACE_OUTER_BOUND('', #2530, .T.);
#2532=FACE_SURFACE('', (#2531), #2533, .T.);
#2533=PLANE('', #9);
#2535=POLY_LOOP('', (#117, #118, #246));
#2536=FACE_OUTER_BOUND('', #2535, .T.);
#2537=FACE_SURFACE('', (#2536), #2538, .T.);
#2538=PLANE('', #9);
#2540=POLY_LOOP('', (#117, #246, #245));
#2541=FACE_OUTER_BOUND('', #2540, .T.);
#2542=FACE_SURFACE('', (#2541), #2543, .T.);
#2543=PLANE('', #9);
#2545=POLY_LOOP('', (#118, #119, #247));
#2546=FACE_OUTER_BOUND('', #2545, .T.);
#2547=FACE_SURFACE('', (#2546), #2548, .T.);
#2548=PLANE('', #9);
#2550=POLY_LOOP('', (#118, #247, #246));
#2551=FACE_OUTER_BOUND('', #2550, .T.);
#2552=FACE_SURFACE('', (#2551), #2553, .T.);
#2553=PLANE('', #9);
#2555=POLY_LOOP('', (#119, #120, #248));
#2556=FACE_OUTER_BOUND('', #2555, .T.);
#2557=FACE_SURFACE('', (#2556), #2558, .T.);
#2558=PLANE('', #9);
#2560=POLY_LOOP('', (#119, #248, #247));
#2561=FACE_OUTER_BOUND('', #2560, .T.);
#2562=FACE_SURFACE('', (#2561), #2563, .T.);
#2563=PLANE('', #9);
#2565=POLY_LOOP('', (#120, #121, #249));
#2566=FACE_OUTER_BOUND('', #2565, .T.);
#2567=FACE_SURFACE('', (#2566), #2568, .T.);
#2568=PLANE('', #9);
#2570=POLY_LOOP('', (#120, #249, #248));
#2571=FACE_OUTER_BOUND('', #2570, .T.);
#2572=FACE_SURFACE('', (#2571), #2573, .T.);
#2573=PLANE('', #9);
#2575=POLY_LOOP('', (#121, #122, #250));
#2576=FACE_OUTER_BOUND('', #2575, .T.);
#2577=FACE_SURFACE('', (#2576), #2578, .T.);
#2578=PLANE('', #9);
#2580=POLY_LOOP('', (#121, #250, #249));
#2581=FACE_OUTER_BOUND('', #2580, .T.);
#2582=FACE_SURFACE('', (#2581), #2583, .T.);
#2583=PLANE('', #9);
#2585=POLY_LOOP('', (#122, #123, #251));
#2586=FACE_OUTER_BOUND('', #2585, .T.);
#2587=FACE_SURFACE('', (#2586), #2588, .T.);
#2588=PLANE('', #9);
#2590=POLY_LOOP('', (#122, #251, #250));
#2591=FACE_OUTER_BOUND('', #2590, .T.);
#2592=FACE_SURFACE('', (#2591), #2593, .T.);
#2593=PLANE('', #9);
#2595=POLY_LOOP('', (#123, #124, #252));
#2596=FACE_OUTER_BOUND('', #2595, .T.);
#2597=FACE_SURFACE('', (#2596), #2598, .T.);
#2598=PLANE('', #9);
#2600=POLY_LOOP('', (#123, #252, #251));
#2601=FACE_OUTER_BOUND('', #2600, .T.);
#2602=FACE_SURFACE('', (#2601), #2603, .T.);
#2603=PLANE('', #9);
#2605=POLY_LOOP('', (#124, #125, #253));
#2606=FACE_OUTER_BOUND('', #2605, .T.);
#2607=FACE_SURFACE('', (#2606), #2608, .T.);
#2608=PLANE('', #9);
#2610=POLY_LOOP('', (#124, #253, #252));
#2611=FACE_OUTER_BOUND('', #2610, .T.);
#2612=FACE_SURFACE('', (#2611), #2613, .T.);
#2613=PLANE('', #9);
#2615=POLY_LOOP('', (#125, #126, #254));
#2616=FACE_OUTER_BOUND('', #2615, .T.);
#2617=FACE_SURFACE('', (#2616), #2618, .T.);
#2618=PLANE('', #9);
#2620=POLY_LOOP('', (#125, #254, #253));
#2621=FACE_OUTER_BOUND('', #2620, .T.);
#2622=FACE_SURFACE('', (#2621), #2623, .T.);
#2623=PLANE('', #9);
#2625=POLY_LOOP('', (#126, #127, #255));
#2626=FACE_OUTER_BOUND('', #2625, .T.);
#2627=FACE_SURFACE('', (#2626), #2628, .T.);
#2628=PLANE('', #9);
#2630=POLY_LOOP('', (#126, #255, #254));
#2631=FACE_OUTER_BOUND('', #2630, .T.);
#2632=FACE_SURFACE('', (#2631), #2633, .T.);
#2633=PLANE('', #9);
#2635=POLY_LOOP('', (#127, #128, #256));
#2636=FACE_OUTER_BOUND('', #2635, .T.);
#2637=FACE_SURFACE('', (#2636), #2638, .T.);
#2638=PLANE('', #9);
#2640=POLY_LOOP('', (#127, #256, #255));
#2641=FACE_OUTER_BOUND('', #2640, .T.);
#2642=FACE_SURFACE('', (#2641), #2643, .T.);
#2643=PLANE('', #9);
#2645=POLY_LOOP('', (#128, #129, #257));
#2646=FACE_OUTER_BOUND('', #2645, .T.);
#2647=FACE_SURFACE('', (#2646), #2648, .T.);
#2648=PLANE('', #9);
#2650=POLY_LOOP('', (#128, #257, #256));
#2651=FACE_OUTER_BOUND('', #2650, .T.);
#2652=FACE_SURFACE('', (#2651), #2653, .T.);
#2653=PLANE('', #9);
#2655=POLY_LOOP('', (#129, #130, #258));
#2656=FACE_OUTER_BOUND('', #2655, .T.);
#2657=FACE_SURFACE('', (#2656), #2658, .T.);
#2658=PLANE('', #9);
#2660=POLY_LOOP('', (#129, #258, #257));
#2661=FACE_OUTER_BOUND('', #2660, .T.);
#2662=FACE_SURFACE('', (#2661), #2663, .T.);
#2663=PLANE('', #9);
#2665=POLY_LOOP('', (#130, #131, #259));
#2666=FACE_OUTER_BOUND('', #2665, .T.);
#2667=FACE_SURFACE('', (#2666), #2668, .T.);
#2668=PLANE('', #9);
#2670=POLY_LOOP('', (#130, #259, #258));
#2671=FACE_OUTER_BOUND('', #2670, .T.);
#2672=FACE_SURFACE('', (#2671), #2673, .T.);
#2673=PLANE('', #9);
#2675=POLY_LOOP('', (#131, #132, #260));
#2676=FACE_OUTER_BOUND('', #2675, .T.);
#2677=FACE_SURFACE('', (#2676), #2678, .T.);
#2678=PLANE('', #9);
#2680=POLY_LOOP('', (#131, #260, #259));
#2681=FACE_OUTER_BOUND('', #2680, .T.);
#2682=FACE_SURFACE('', (#2681), #2683, .T.);
#2683=PLANE('', #9);
#2685=POLY_LOOP('', (#132, #133, #261));
#2686=FACE_OUTER_BOUND('', #2685, .T.);
#2687=FACE_SURFACE('', (#2686), #2688, .T.);
#2688=PLANE('', #9);
#2690=POLY_LOOP('', (#132, #261, #260));
#2691=FACE_OUTER_BOUND('', #2690, .T.);
#2692=FACE_SURFACE('', (#2691), #2693, .T.);
#2693=PLANE('', #9);
#2695=POLY_LOOP('', (#133, #134, #262));
#2696=FACE_OUTER_BOUND('', #2695, .T.);
#2697=FACE_SURFACE('', (#2696), #2698, .T.);
#2698=PLANE('', #9);
#2700=POLY_LOOP('', (#133, #262, #261));
#2701=FACE_OUTER_BOUND('', #2700, .T.);
#2702=FACE_SURFACE('', (#2701), #2703, .T.);
#2703=PLANE('', #9);
#2705=POLY_LOOP('', (#134, #135, #263));
#2706=FACE_OUTER_BOUND('', #2705, .T.);
#2707=FACE_SURFACE('', (#2706), #2708, .T.);
#2708=PLANE('', #9);
#2710=POLY_LOOP('', (#134, #263, #262));
#2711=FACE_OUTER_BOUND('', #2710, .T.);
#2712=FACE_SURFACE('', (#2711), #2713, .T.);
#2713=PLANE('', #9);
#2715=POLY_LOOP('', (#135, #136, #264));
#2716=FACE_OUTER_BOUND('', #2715, .T.);
#2717=FACE_SURFACE('', (#2716), #2718, .T.);
#2718=PLANE('', #9);
#2720=POLY_LOOP('', (#135, #264, #263));
#2721=FACE_OUTER_BOUND('', #2720, .T.);
#2722=FACE_SURFACE('', (#2721), #2723, .T.);
#2723=PLANE('', #9);
#2725=POLY_LOOP('', (#136, #137, #265));
#2726=FACE_OUTER_BOUND('', #2725, .T.);
#2727=FACE_SURFACE('', (#2726), #2728, .T.);
#2728=PLANE('', #9);
#2730=POLY_LOOP('', (#136, #265, #264));
#2731=FACE_OUTER_BOUND('', #2730, .T.);
#2732=FACE_SURFACE('', (#2731), #2733, .T.);
#2733=PLANE('', #9);
#2735=POLY_LOOP('', (#137, #138, #266));
#2736=FACE_OUTER_BOUND('', #2735, .T.);
#2737=FACE_SURFACE('', (#2736), #2738, .T.);
#2738=PLANE('', #9);
#2740=POLY_LOOP('', (#137, #266, #265));
#2741=FACE_OUTER_BOUND('', #2740, .T.);
#2742=FACE_SURFACE('', (#2741), #2743, .T.);
#2743=PLANE('', #9);
#2745=POLY_LOOP('', (#138, #139, #267));
#2746=FACE_OUTER_BOUND('', #2745, .T.);
#2747=FACE_SURFACE('', (#2746), #2748, .T.);
#2748=PLANE('', #9);
#2750=POLY_LOOP('', (#138, #267, #266));
#2751=FACE_OUTER_BOUND('', #2750, .T.);
#2752=FACE_SURFACE('', (#2751), #2753, .T.);
#2753=PLANE('', #9);
#2755=POLY_LOOP('', (#139, #140, #268));
#2756=FACE_OUTER_BOUND('', #2755, .T.);
#2757=FACE_SURFACE('', (#2756), #2758, .T.);
#2758=PLANE('', #9);
#2760=POLY_LOOP('', (#139, #268, #267));
#2761=FACE_OUTER_BOUND('', #2760, .T.);
#2762=FACE_SURFACE('', (#2761), #2763, .T.);
#2763=PLANE('', #9);
#2765=POLY_LOOP('', (#140, #141, #269));
#2766=FACE_OUTER_BOUND('', #2765, .T.);
#2767=FACE_SURFACE('', (#2766), #2768, .T.);
#2768=PLANE('', #9);
#2770=POLY_LOOP('', (#140, #269, #268));
#2771=FACE_OUTER_BOUND('', #2770, .T.);
#2772=FACE_SURFACE('', (#2771), #2773, .T.);
#2773=PLANE('', #9);
#2775=POLY_LOOP('', (#141, #142, #270));
#2776=FACE_OUTER_BOUND('', #2775, .T.);
#2777=FACE_SURFACE('', (#2776), #2778, .T.);
#2778=PLANE('', #9);
#2780=POLY_LOOP('', (#141, #270, #269));
#2781=FACE_OUTER_BOUND('', #2780, .T.);
#2782=FACE_SURFACE('', (#2781), #2783, .T.);
#2783=PLANE('', #9);
#2785=POLY_LOOP('', (#142, #143, #271));
#2786=FACE_OUTER_BOUND('', #2785, .T.);
#2787=FACE_SURFACE('', (#2786), #2788, .T.);
#2788=PLANE('', #9);
#2790=POLY_LOOP('', (#142, #271, #270));
#2791=FACE_OUTER_BOUND('', #2790, .T.);
#2792=FACE_SURFACE('', (#2791), #2793, .T.);
#2793=PLANE('', #9);
#2795=POLY_LOOP('', (#143, #144, #272));
#2796=FACE_OUTER_BOUND('', #2795, .T.);
#2797=FACE_SURFACE('', (#2796), #2798, .T.);
#2798=PLANE('', #9);
#2800=POLY_LOOP('', (#143, #272, #271));
#2801=FACE_OUTER_BOUND('', #2800, .T.);
#2802=FACE_SURFACE('', (#2801), #2803, .T.);
#2803=PLANE('', #9);
#2805=POLY_LOOP('', (#144, #145, #273));
#2806=FACE_OUTER_BOUND('', #2805, .T.);
#2807=FACE_SURFACE('', (#2806), #2808, .T.);
#2808=PLANE('', #9);
#2810=POLY_LOOP('', (#144, #273, #272));
#2811=FACE_OUTER_BOUND('', #2810, .T.);
#2812=FACE_SURFACE('', (#2811), #2813, .T.);
#2813=PLANE('', #9);
#2815=POLY_LOOP('', (#145, #146, #274));
#2816=FACE_OUTER_BOUND('', #2815, .T.);
#2817=FACE_SURFACE('', (#2816), #2818, .T.);
#2818=PLANE('', #9);
#2820=POLY_LOOP('', (#145, #274, #273));
#2821=FACE_OUTER_BOUND('', #2820, .T.);
#2822=FACE_SURFACE('', (#2821), #2823, .T.);
#2823=PLANE('', #9);
#2825=POLY_LOOP('', (#146, #83, #211));
#2826=FACE_OUTER_BOUND('', #2825, .T.);
#2827=FACE_SURFACE('', (#2826), #2828, .T.);
#2828=PLANE('', #9);
#2830=POLY_LOOP('', (#146, #211, #274));
#2831=FACE_OUTER_BOUND('', #2830, .T.);
#2832=FACE_SURFACE('', (#2831), #2833, .T.);
#2833=PLANE('', #9);
#2835=CLOSED_SHELL('', (#277,#282,#287,#292,#297,#302,#307,#312,#317,#322,#327,#332,#337,#342,#347,#352,#357,#362,#367,#372,#377,#382,#387,#392,#397,#402,#407,#412,#417,#422,#427,#432,#437,#442,#447,#452,#457,#462,#467,#472,#477,#482,#487,#492,#497,#502,#507,#512,#517,#522,#527,#532,#537,#542,#547,#552,#557,#562,#567,#572,#577,#582,#587,#592,#597,#602,#607,#612,#617,#622,#627,#632,#637,#642,#647,#652,#657,#662,#667,#672,#677,#682,#687,#692,#697,#702,#707,#712,#717,#722,#727,#732,#737,#742,#747,#752,#757,#762,#767,#772,#777,#782,#787,#792,#797,#802,#807,#812,#817,#822,#827,#832,#837,#842,#847,#852,#857,#862,#867,#872,#877,#882,#887,#892,#897,#902,#907,#912,#917,#922,#927,#932,#937,#942,#947,#952,#957,#962,#967,#972,#977,#982,#987,#992,#997,#1002,#1007,#1012,#1017,#1022,#1027,#1032,#1037,#1042,#1047,#1052,#1057,#1062,#1067,#1072,#1077,#1082,#1087,#1092,#1097,#1102,#1107,#1112,#1117,#1122,#1127,#1132,#1137,#1142,#1147,#1152,#1157,#1162,#1167,#1172,#1177,#1182,#1187,#1192,#1197,#1202,#1207,#1212,#1217,#1222,#1227,#1232,#1237,#1242,#1247,#1252,#1257,#1262,#1267,#1272,#1277,#1282,#1287,#1292,#1297,#1302,#1307,#1312,#1317,#1322,#1327,#1332,#1337,#1342,#1347,#1352,#1357,#1362,#1367,#1372,#1377,#1382,#1387,#1392,#1397,#1402,#1407,#1412,#1417,#1422,#1427,#1432,#1437,#1442,#1447,#1452,#1457,#1462,#1467,#1472,#1477,#1482,#1487,#1492,#1497,#1502,#1507,#1512,#1517,#1522,#1527,#1532,#1537,#1542,#1547,#1552,#1557,#1562,#1567,#1572,#1577,#1582,#1587,#1592,#1597,#1602,#1607,#1612,#1617,#1622,#1627,#1632,#1637,#1642,#1647,#1652,#1657,#1662,#1667,#1672,#1677,#1682,#1687,#1692,#1697,#1702,#1707,#1712,#1717,#1722,#1727,#1732,#1737,#1742,#1747,#1752,#1757,#1762,#1767,#1772,#1777,#1782,#1787,#1792,#1797,#1802,#1807,#1812,#1817,#1822,#1827,#1832,#1837,#1842,#1847,#1852,#1857,#1862,#1867,#1872,#1877,#1882,#1887,#1892,#1897,#1902,#1907,#1912,#1917,#1922,#1927,#1932,#1937,#1942,#1947,#1952,#1957,#1962,#1967,#1972,#1977,#1982,#1987,#1992,#1997,#2002,#2007,#2012,#2017,#2022,#2027,#2032,#2037,#2042,#2047,#2052,#2057,#2062,#2067,#2072,#2077,#2082,#2087,#2092,#2097,#2102,#2107,#2112,#2117,#2122,#2127,#2132,#2137,#2142,#2147,#2152,#2157,#2162,#2167,#2172,#2177,#2182,#2187,#2192,#2197,#2202,#2207,#2212,#2217,#2222,#2227,#2232,#2237,#2242,#2247,#2252,#2257,#2262,#2267,#2272,#2277,#2282,#2287,#2292,#2297,#2302,#2307,#2312,#2317,#2322,#2327,#2332,#2337,#2342,#2347,#2352,#2357,#2362,#2367,#2372,#2377,#2382,#2387,#2392,#2397,#2402,#2407,#2412,#2417,#2422,#2427,#2432,#2437,#2442,#2447,#2452,#2457,#2462,#2467,#2472,#2477,#2482,#2487,#2492,#2497,#2502,#2507,#2512,#2517,#2522,#2527,#2532,#2537,#2542,#2547,#2552,#2557,#2562,#2567,#2572,#2577,#2582,#2587,#2592,#2597,#2602,#2607,#2612,#2617,#2622,#2627,#2632,#2637,#2642,#2647,#2652,#2657,#2662,#2667,#2672,#2677,#2682,#2687,#2692,#2697,#2702,#2707,#2712,#2717,#2722,#2727,#2732,#2737,#2742,#2747,#2752,#2757,#2762,#2767,#2772,#2777,#2782,#2787,#2792,#2797,#2802,#2807,#2812,#2817,#2822,#2827,#2832));
#2836=FACETTED_BREP('TUBE_V2_SOLID', #2835);
ENDSEC;
END-ISO-10303-21;