# https://github.com/mikedh/trimesh
v 0.85000000 0.00000000 0.00000000
v 0.84590702 0.08331457 0.00000000
v 0.83366749 0.16582677 0.00000000
v 0.81339929 0.24674198 0.00000000
v 0.78529760 0.32528092 0.00000000
v 0.74963307 0.40068723 0.00000000
v 0.70674917 0.47223470 0.00000000
v 0.65705889 0.53923429 0.00000000
v 0.60104076 0.60104076 0.00000000
v 0.53923429 0.65705889 0.00000000
v 0.47223470 0.70674917 0.00000000
v 0.40068723 0.74963307 0.00000000
v 0.32528092 0.78529760 0.00000000
v 0.24674198 0.81339929 0.00000000
v 0.16582677 0.83366749 0.00000000
v 0.08331457 0.84590702 0.00000000
v 0.00000000 0.85000000 0.00000000
v -0.08331457 0.84590702 0.00000000
v -0.16582677 0.83366749 0.00000000
v -0.24674198 0.81339929 0.00000000
v -0.32528092 0.78529760 0.00000000
v -0.40068723 0.74963307 0.00000000
v -0.47223470 0.70674917 0.00000000
v -0.53923429 0.65705889 0.00000000
v -0.60104076 0.60104076 0.00000000
v -0.65705889 0.53923429 0.00000000
v -0.70674917 0.47223470 0.00000000
v -0.74963307 0.40068723 0.00000000
v -0.78529760 0.32528092 0.00000000
v -0.81339929 0.24674198 0.00000000
v -0.83366749 0.16582677 0.00000000
v -0.84590702 0.08331457 0.00000000
v -0.85000000 0.00000000 0.00000000
v -0.84590702 -0.08331457 0.00000000
v -0.83366749 -0.16582677 0.00000000
v -0.81339929 -0.24674198 0.00000000
v -0.78529760 -0.32528092 0.00000000
v -0.74963307 -0.40068723 0.00000000
v -0.70674917 -0.47223470 0.00000000
v -0.65705889 -0.53923429 0.00000000
v -0.60104076 -0.60104076 0.00000000
v -0.53923429 -0.65705889 0.00000000
v -0.47223470 -0.70674917 0.00000000
v -0.40068723 -0.74963307 0.00000000
v -0.32528092 -0.78529760 0.00000000
v -0.24674198 -0.81339929 0.00000000
v -0.16582677 -0.83366749 0.00000000
v -0.08331457 -0.84590702 0.00000000
v -0.00000000 -0.85000000 0.00000000
v 0.08331457 -0.84590702 0.00000000
v 0.16582677 -0.83366749 0.00000000
v 0.24674198 -0.81339929 0.00000000
v 0.32528092 -0.78529760 0.00000000
v 0.40068723 -0.74963307 0.00000000
v 0.47223470 -0.70674917 0.00000000
v 0.53923429 -0.65705889 0.00000000
v 0.60104076 -0.60104076 0.00000000
v 0.65705889 -0.53923429 0.00000000
v 0.70674917 -0.47223470 0.00000000
v 0.74963307 -0.40068723 0.00000000
v 0.78529760 -0.32528092 0.00000000
v 0.81339929 -0.24674198 0.00000000
v 0.83366749 -0.16582677 0.00000000
v 0.84590702 -0.08331457 0.00000000
v 1.00000000 0.00000000 5.00000000
v 0.99518473 0.09801714 5.00000000
v 0.98078528 0.19509032 5.00000000
v 0.95694034 0.29028468 5.00000000
v 0.92387953 0.38268343 5.00000000
v 0.88192126 0.47139674 5.00000000
v 0.83146961 0.55557023 5.00000000
v 0.77301045 0.63439328 5.00000000
v 0.70710678 0.70710678 5.00000000
v 0.63439328 0.77301045 5.00000000
v 0.55557023 0.83146961 5.00000000
v 0.47139674 0.88192126 5.00000000
v 0.38268343 0.92387953 5.00000000
v 0.29028468 0.95694034 5.00000000
v 0.19509032 0.98078528 5.00000000
v 0.09801714 0.99518473 5.00000000
v 0.00000000 1.00000000 5.00000000
v -0.09801714 0.99518473 5.00000000
v -0.19509032 0.98078528 5.00000000
v -0.29028468 0.95694034 5.00000000
v -0.38268343 0.92387953 5.00000000
v -0.47139674 0.88192126 5.00000000
v -0.55557023 0.83146961 5.00000000
v -0.63439328 0.77301045 5.00000000
v -0.70710678 0.70710678 5.00000000
v -0.77301045 0.63439328 5.00000000
v -0.83146961 0.55557023 5.00000000
v -0.88192126 0.47139674 5.00000000
v -0.92387953 0.38268343 5.00000000
v -0.95694034 0.29028468 5.00000000
v -0.98078528 0.19509032 5.00000000
v -0.99518473 0.09801714 5.00000000
v -1.00000000 0.00000000 5.00000000
v -0.99518473 -0.09801714 5.00000000
v -0.98078528 -0.19509032 5.00000000
v -0.95694034 -0.29028468 5.00000000
v -0.92387953 -0.38268343 5.00000000
v -0.88192126 -0.47139674 5.00000000
v -0.83146961 -0.55557023 5.00000000
v -0.77301045 -0.63439328 5.00000000
v -0.70710678 -0.70710678 5.00000000
v -0.63439328 -0.77301045 5.00000000
v -0.55557023 -0.83146961 5.00000000
v -0.47139674 -0.88192126 5.00000000
v -0.38268343 -0.92387953 5.00000000
v -0.29028468 -0.95694034 5.00000000
v -0.19509032 -0.98078528 5.00000000
v -0.09801714 -0.99518473 5.00000000
v -0.00000000 -1.00000000 5.00000000
v 0.09801714 -0.99518473 5.00000000
v 0.19509032 -0.98078528 5.00000000
v 0.29028468 -0.95694034 5.00000000
v 0.38268343 -0.92387953 5.00000000
v 0.47139674 -0.88192126 5.00000000
v 0.55557023 -0.83146961 5.00000000
v 0.63439328 -0.77301045 5.00000000
v 0.70710678 -0.70710678 5.00000000
v 0.77301045 -0.63439328 5.00000000
v 0.83146961 -0.55557023 5.00000000
v 0.88192126 -0.47139674 5.00000000
v 0.92387953 -0.38268343 5.00000000
v 0.95694034 -0.29028468 5.00000000
v 0.98078528 -0.19509032 5.00000000
v 0.99518473 -0.09801714 5.00000000
v 1.00000000 0.00000000 240.00000000
v 0.99518473 0.09801714 240.00000000
v 0.98078528 0.19509032 240.00000000
v 0.95694034 0.29028468 240.00000000
v 0.92387953 0.38268343 240.00000000
v 0.88192126 0.47139674 240.00000000
v 0.83146961 0.55557023 240.00000000
v 0.77301045 0.63439328 240.00000000
v 0.70710678 0.70710678 240.00000000
v 0.63439328 0.77301045 240.00000000
v 0.55557023 0.83146961 240.00000000
v 0.47139674 0.88192126 240.00000000
v 0.38268343 0.92387953 240.00000000
v 0.29028468 0.95694034 240.00000000
v 0.19509032 0.98078528 240.00000000
v 0.09801714 0.99518473 240.00000000
v 0.00000000 1.00000000 240.00000000
v -0.09801714 0.99518473 240.00000000
v -0.19509032 0.98078528 240.00000000
v -0.29028468 0.95694034 240.00000000
v -0.38268343 0.92387953 240.00000000
v -0.47139674 0.88192126 240.00000000
v -0.55557023 0.83146961 240.00000000
v -0.63439328 0.77301045 240.00000000
v -0.70710678 0.70710678 240.00000000
v -0.77301045 0.63439328 240.00000000
v -0.83146961 0.55557023 240.00000000
v -0.88192126 0.47139674 240.00000000
v -0.92387953 0.38268343 240.00000000
v -0.95694034 0.29028468 240.00000000
v -0.98078528 0.19509032 240.00000000
v -0.99518473 0.09801714 240.00000000
v -1.00000000 0.00000000 240.00000000
v -0.99518473 -0.09801714 240.00000000
v -0.98078528 -0.19509032 240.00000000
v -0.95694034 -0.29028468 240.00000000
v -0.92387953 -0.38268343 240.00000000
v -0.88192126 -0.47139674 240.00000000
v -0.83146961 -0.55557023 240.00000000
v -0.77301045 -0.63439328 240.00000000
v -0.70710678 -0.70710678 240.00000000
v -0.63439328 -0.77301045 240.00000000
v -0.55557023 -0.83146961 240.00000000
v -0.47139674 -0.88192126 240.00000000
v -0.38268343 -0.92387953 240.00000000
v -0.29028468 -0.95694034 240.00000000
v -0.19509032 -0.98078528 240.00000000
v -0.09801714 -0.99518473 240.00000000
v -0.00000000 -1.00000000 240.00000000
v 0.09801714 -0.99518473 240.00000000
v 0.19509032 -0.98078528 240.00000000
v 0.29028468 -0.95694034 240.00000000
v 0.38268343 -0.92387953 240.00000000
v 0.47139674 -0.88192126 240.00000000
v 0.55557023 -0.83146961 240.00000000
v 0.63439328 -0.77301045 240.00000000
v 0.70710678 -0.70710678 240.00000000
v 0.77301045 -0.63439328 240.00000000
v 0.83146961 -0.55557023 240.00000000
v 0.88192126 -0.47139674 240.00000000
v 0.92387953 -0.38268343 240.00000000
v 0.95694034 -0.29028468 240.00000000
v 0.98078528 -0.19509032 240.00000000
v 0.99518473 -0.09801714 240.00000000
v 2.20000000 0.00000000 246.00000000
v 2.18940640 0.21563771 246.00000000
v 2.15772762 0.42919871 246.00000000
v 2.10526874 0.63862629 246.00000000
v 2.03253497 0.84190355 246.00000000
v 1.94022678 1.03707282 246.00000000
v 1.82923315 1.22225451 246.00000000
v 1.70062300 1.39566523 246.00000000
v 1.55563492 1.55563492 246.00000000
v 1.39566523 1.70062300 246.00000000
v 1.22225451 1.82923315 246.00000000
v 1.03707282 1.94022678 246.00000000
v 0.84190355 2.03253497 246.00000000
v 0.63862629 2.10526874 246.00000000
v 0.42919871 2.15772762 246.00000000
v 0.21563771 2.18940640 246.00000000
v 0.00000000 2.20000000 246.00000000
v -0.21563771 2.18940640 246.00000000
v -0.42919871 2.15772762 246.00000000
v -0.63862629 2.10526874 246.00000000
v -0.84190355 2.03253497 246.00000000
v -1.03707282 1.94022678 246.00000000
v -1.22225451 1.82923315 246.00000000
v -1.39566523 1.70062300 246.00000000
v -1.55563492 1.55563492 246.00000000
v -1.70062300 1.39566523 246.00000000
v -1.82923315 1.22225451 246.00000000
v -1.94022678 1.03707282 246.00000000
v -2.03253497 0.84190355 246.00000000
v -2.10526874 0.63862629 246.00000000
v -2.15772762 0.42919871 246.00000000
v -2.18940640 0.21563771 246.00000000
v -2.20000000 0.00000000 246.00000000
v -2.18940640 -0.21563771 246.00000000
v -2.15772762 -0.42919871 246.00000000
v -2.10526874 -0.63862629 246.00000000
v -2.03253497 -0.84190355 246.00000000
v -1.94022678 -1.03707282 246.00000000
v -1.82923315 -1.22225451 246.00000000
v -1.70062300 -1.39566523 246.00000000
v -1.55563492 -1.55563492 246.00000000
v -1.39566523 -1.70062300 246.00000000
v -1.22225451 -1.82923315 246.00000000
v -1.03707282 -1.94022678 246.00000000
v -0.84190355 -2.03253497 246.00000000
v -0.63862629 -2.10526874 246.00000000
v -0.42919871 -2.15772762 246.00000000
v -0.21563771 -2.18940640 246.00000000
v -0.00000000 -2.20000000 246.00000000
v 0.21563771 -2.18940640 246.00000000
v 0.42919871 -2.15772762 246.00000000
v 0.63862629 -2.10526874 246.00000000
v 0.84190355 -2.03253497 246.00000000
v 1.03707282 -1.94022678 246.00000000
v 1.22225451 -1.82923315 246.00000000
v 1.39566523 -1.70062300 246.00000000
v 1.55563492 -1.55563492 246.00000000
v 1.70062300 -1.39566523 246.00000000
v 1.82923315 -1.22225451 246.00000000
v 1.94022678 -1.03707282 246.00000000
v 2.03253497 -0.84190355 246.00000000
v 2.10526874 -0.63862629 246.00000000
v 2.15772762 -0.42919871 246.00000000
v 2.18940640 -0.21563771 246.00000000
v 2.80000000 0.00000000 255.00000000
v 2.78651723 0.27444799 255.00000000
v 2.74619879 0.54625290 255.00000000
v 2.67943294 0.81279710 255.00000000
v 2.58686269 1.07151361 255.00000000
v 2.46937954 1.31991086 255.00000000
v 2.32811491 1.55559665 255.00000000
v 2.16442927 1.77630120 255.00000000
v 1.97989899 1.97989899 255.00000000
v 1.77630120 2.16442927 255.00000000
v 1.55559665 2.32811491 255.00000000
v 1.31991086 2.46937954 255.00000000
v 1.07151361 2.58686269 255.00000000
v 0.81279710 2.67943294 255.00000000
v 0.54625290 2.74619879 255.00000000
v 0.27444799 2.78651723 255.00000000
v 0.00000000 2.80000000 255.00000000
v -0.27444799 2.78651723 255.00000000
v -0.54625290 2.74619879 255.00000000
v -0.81279710 2.67943294 255.00000000
v -1.07151361 2.58686269 255.00000000
v -1.31991086 2.46937954 255.00000000
v -1.55559665 2.32811491 255.00000000
v -1.77630120 2.16442927 255.00000000
v -1.97989899 1.97989899 255.00000000
v -2.16442927 1.77630120 255.00000000
v -2.32811491 1.55559665 255.00000000
v -2.46937954 1.31991086 255.00000000
v -2.58686269 1.07151361 255.00000000
v -2.67943294 0.81279710 255.00000000
v -2.74619879 0.54625290 255.00000000
v -2.78651723 0.27444799 255.00000000
v -2.80000000 0.00000000 255.00000000
v -2.78651723 -0.27444799 255.00000000
v -2.74619879 -0.54625290 255.00000000
v -2.67943294 -0.81279710 255.00000000
v -2.58686269 -1.07151361 255.00000000
v -2.46937954 -1.31991086 255.00000000
v -2.32811491 -1.55559665 255.00000000
v -2.16442927 -1.77630120 255.00000000
v -1.97989899 -1.97989899 255.00000000
v -1.77630120 -2.16442927 255.00000000
v -1.55559665 -2.32811491 255.00000000
v -1.31991086 -2.46937954 255.00000000
v -1.07151361 -2.58686269 255.00000000
v -0.81279710 -2.67943294 255.00000000
v -0.54625290 -2.74619879 255.00000000
v -0.27444799 -2.78651723 255.00000000
v -0.00000000 -2.80000000 255.00000000
v 0.27444799 -2.78651723 255.00000000
v 0.54625290 -2.74619879 255.00000000
v 0.81279710 -2.67943294 255.00000000
v 1.07151361 -2.58686269 255.00000000
v 1.31991086 -2.46937954 255.00000000
v 1.55559665 -2.32811491 255.00000000
v 1.77630120 -2.16442927 255.00000000
v 1.97989899 -1.97989899 255.00000000
v 2.16442927 -1.77630120 255.00000000
v 2.32811491 -1.55559665 255.00000000
v 2.46937954 -1.31991086 255.00000000
v 2.58686269 -1.07151361 255.00000000
v 2.67943294 -0.81279710 255.00000000
v 2.74619879 -0.54625290 255.00000000
v 2.78651723 -0.27444799 255.00000000
v 0.60000000 0.00000000 0.00000000
v 0.59711084 0.05881028 0.00000000
v 0.58847117 0.11705419 0.00000000
v 0.57416420 0.17417081 0.00000000
v 0.55432772 0.22961006 0.00000000
v 0.52915276 0.28283804 0.00000000
v 0.49888177 0.33334214 0.00000000
v 0.46380627 0.38063597 0.00000000
v 0.42426407 0.42426407 0.00000000
v 0.38063597 0.46380627 0.00000000
v 0.33334214 0.49888177 0.00000000
v 0.28283804 0.52915276 0.00000000
v 0.22961006 0.55432772 0.00000000
v 0.17417081 0.57416420 0.00000000
v 0.11705419 0.58847117 0.00000000
v 0.05881028 0.59711084 0.00000000
v 0.00000000 0.60000000 0.00000000
v -0.05881028 0.59711084 0.00000000
v -0.11705419 0.58847117 0.00000000
v -0.17417081 0.57416420 0.00000000
v -0.22961006 0.55432772 0.00000000
v -0.28283804 0.52915276 0.00000000
v -0.33334214 0.49888177 0.00000000
v -0.38063597 0.46380627 0.00000000
v -0.42426407 0.42426407 0.00000000
v -0.46380627 0.38063597 0.00000000
v -0.49888177 0.33334214 0.00000000
v -0.52915276 0.28283804 0.00000000
v -0.55432772 0.22961006 0.00000000
v -0.57416420 0.17417081 0.00000000
v -0.58847117 0.11705419 0.00000000
v -0.59711084 0.05881028 0.00000000
v -0.60000000 0.00000000 0.00000000
v -0.59711084 -0.05881028 0.00000000
v -0.58847117 -0.11705419 0.00000000
v -0.57416420 -0.17417081 0.00000000
v -0.55432772 -0.22961006 0.00000000
v -0.52915276 -0.28283804 0.00000000
v -0.49888177 -0.33334214 0.00000000
v -0.46380627 -0.38063597 0.00000000
v -0.42426407 -0.42426407 0.00000000
v -0.38063597 -0.46380627 0.00000000
v -0.33334214 -0.49888177 0.00000000
v -0.28283804 -0.52915276 0.00000000
v -0.22961006 -0.55432772 0.00000000
v -0.17417081 -0.57416420 0.00000000
v -0.11705419 -0.58847117 0.00000000
v -0.05881028 -0.59711084 0.00000000
v -0.00000000 -0.60000000 0.00000000
v 0.05881028 -0.59711084 0.00000000
v 0.11705419 -0.58847117 0.00000000
v 0.17417081 -0.57416420 0.00000000
v 0.22961006 -0.55432772 0.00000000
v 0.28283804 -0.52915276 0.00000000
v 0.33334214 -0.49888177 0.00000000
v 0.38063597 -0.46380627 0.00000000
v 0.42426407 -0.42426407 0.00000000
v 0.46380627 -0.38063597 0.00000000
v 0.49888177 -0.33334214 0.00000000
v 0.52915276 -0.28283804 0.00000000
v 0.55432772 -0.22961006 0.00000000
v 0.57416420 -0.17417081 0.00000000
v 0.58847117 -0.11705419 0.00000000
v 0.59711084 -0.05881028 0.00000000
v 0.60000000 0.00000000 5.00000000
v 0.59711084 0.05881028 5.00000000
v 0.58847117 0.11705419 5.00000000
v 0.57416420 0.17417081 5.00000000
v 0.55432772 0.22961006 5.00000000
v 0.52915276 0.28283804 5.00000000
v 0.49888177 0.33334214 5.00000000
v 0.46380627 0.38063597 5.00000000
v 0.42426407 0.42426407 5.00000000
v 0.38063597 0.46380627 5.00000000
v 0.33334214 0.49888177 5.00000000
v 0.28283804 0.52915276 5.00000000
v 0.22961006 0.55432772 5.00000000
v 0.17417081 0.57416420 5.00000000
v 0.11705419 0.58847117 5.00000000
v 0.05881028 0.59711084 5.00000000
v 0.00000000 0.60000000 5.00000000
v -0.05881028 0.59711084 5.00000000
v -0.11705419 0.58847117 5.00000000
v -0.17417081 0.57416420 5.00000000
v -0.22961006 0.55432772 5.00000000
v -0.28283804 0.52915276 5.00000000
v -0.33334214 0.49888177 5.00000000
v -0.38063597 0.46380627 5.00000000
v -0.42426407 0.42426407 5.00000000
v -0.46380627 0.38063597 5.00000000
v -0.49888177 0.33334214 5.00000000
v -0.52915276 0.28283804 5.00000000
v -0.55432772 0.22961006 5.00000000
v -0.57416420 0.17417081 5.00000000
v -0.58847117 0.11705419 5.00000000
v -0.59711084 0.05881028 5.00000000
v -0.60000000 0.00000000 5.00000000
v -0.59711084 -0.05881028 5.00000000
v -0.58847117 -0.11705419 5.00000000
v -0.57416420 -0.17417081 5.00000000
v -0.55432772 -0.22961006 5.00000000
v -0.52915276 -0.28283804 5.00000000
v -0.49888177 -0.33334214 5.00000000
v -0.46380627 -0.38063597 5.00000000
v -0.42426407 -0.42426407 5.00000000
v -0.38063597 -0.46380627 5.00000000
v -0.33334214 -0.49888177 5.00000000
v -0.28283804 -0.52915276 5.00000000
v -0.22961006 -0.55432772 5.00000000
v -0.17417081 -0.57416420 5.00000000
v -0.11705419 -0.58847117 5.00000000
v -0.05881028 -0.59711084 5.00000000
v -0.00000000 -0.60000000 5.00000000
v 0.05881028 -0.59711084 5.00000000
v 0.11705419 -0.58847117 5.00000000
v 0.17417081 -0.57416420 5.00000000
v 0.22961006 -0.55432772 5.00000000
v 0.28283804 -0.52915276 5.00000000
v 0.33334214 -0.49888177 5.00000000
v 0.38063597 -0.46380627 5.00000000
v 0.42426407 -0.42426407 5.00000000
v 0.46380627 -0.38063597 5.00000000
v 0.49888177 -0.33334214 5.00000000
v 0.52915276 -0.28283804 5.00000000
v 0.55432772 -0.22961006 5.00000000
v 0.57416420 -0.17417081 5.00000000
v 0.58847117 -0.11705419 5.00000000
v 0.59711084 -0.05881028 5.00000000
v 0.60000000 0.00000000 240.00000000
v 0.59711084 0.05881028 240.00000000
v 0.58847117 0.11705419 240.00000000
v 0.57416420 0.17417081 240.00000000
v 0.55432772 0.22961006 240.00000000
v 0.52915276 0.28283804 240.00000000
v 0.49888177 0.33334214 240.00000000
v 0.46380627 0.38063597 240.00000000
v 0.42426407 0.42426407 240.00000000
v 0.38063597 0.46380627 240.00000000
v 0.33334214 0.49888177 240.00000000
v 0.28283804 0.52915276 240.00000000
v 0.22961006 0.55432772 240.00000000
v 0.17417081 0.57416420 240.00000000
v 0.11705419 0.58847117 240.00000000
v 0.05881028 0.59711084 240.00000000
v 0.00000000 0.60000000 240.00000000
v -0.05881028 0.59711084 240.00000000
v -0.11705419 0.58847117 240.00000000
v -0.17417081 0.57416420 240.00000000
v -0.22961006 0.55432772 240.00000000
v -0.28283804 0.52915276 240.00000000
v -0.33334214 0.49888177 240.00000000
v -0.38063597 0.46380627 240.00000000
v -0.42426407 0.42426407 240.00000000
v -0.46380627 0.38063597 240.00000000
v -0.49888177 0.33334214 240.00000000
v -0.52915276 0.28283804 240.00000000
v -0.55432772 0.22961006 240.00000000
v -0.57416420 0.17417081 240.00000000
v -0.58847117 0.11705419 240.00000000
v -0.59711084 0.05881028 240.00000000
v -0.60000000 0.00000000 240.00000000
v -0.59711084 -0.05881028 240.00000000
v -0.58847117 -0.11705419 240.00000000
v -0.57416420 -0.17417081 240.00000000
v -0.55432772 -0.22961006 240.00000000
v -0.52915276 -0.28283804 240.00000000
v -0.49888177 -0.33334214 240.00000000
v -0.46380627 -0.38063597 240.00000000
v -0.42426407 -0.42426407 240.00000000
v -0.38063597 -0.46380627 240.00000000
v -0.33334214 -0.49888177 240.00000000
v -0.28283804 -0.52915276 240.00000000
v -0.22961006 -0.55432772 240.00000000
v -0.17417081 -0.57416420 240.00000000
v -0.11705419 -0.58847117 240.00000000
v -0.05881028 -0.59711084 240.00000000
v -0.00000000 -0.60000000 240.00000000
v 0.05881028 -0.59711084 240.00000000
v 0.11705419 -0.58847117 240.00000000
v 0.17417081 -0.57416420 240.00000000
v 0.22961006 -0.55432772 240.00000000
v 0.28283804 -0.52915276 240.00000000
v 0.33334214 -0.49888177 240.00000000
v 0.38063597 -0.46380627 240.00000000
v 0.42426407 -0.42426407 240.00000000
v 0.46380627 -0.38063597 240.00000000
v 0.49888177 -0.33334214 240.00000000
v 0.52915276 -0.28283804 240.00000000
v 0.55432772 -0.22961006 240.00000000
v 0.57416420 -0.17417081 240.00000000
v 0.58847117 -0.11705419 240.00000000
v 0.59711084 -0.05881028 240.00000000
v 0.78000000 0.00000000 246.00000000
v 0.77624409 0.07645337 246.00000000
v 0.76501252 0.15217045 246.00000000
v 0.74641346 0.22642205 246.00000000
v 0.72062604 0.29849308 246.00000000
v 0.68789859 0.36768945 246.00000000
v 0.64854630 0.43334478 246.00000000
v 0.60294815 0.49482676 246.00000000
v 0.55154329 0.55154329 246.00000000
v 0.49482676 0.60294815 246.00000000
v 0.43334478 0.64854630 246.00000000
v 0.36768945 0.68789859 246.00000000
v 0.29849308 0.72062604 246.00000000
v 0.22642205 0.74641346 246.00000000
v 0.15217045 0.76501252 246.00000000
v 0.07645337 0.77624409 246.00000000
v 0.00000000 0.78000000 246.00000000
v -0.07645337 0.77624409 246.00000000
v -0.15217045 0.76501252 246.00000000
v -0.22642205 0.74641346 246.00000000
v -0.29849308 0.72062604 246.00000000
v -0.36768945 0.68789859 246.00000000
v -0.43334478 0.64854630 246.00000000
v -0.49482676 0.60294815 246.00000000
v -0.55154329 0.55154329 246.00000000
v -0.60294815 0.49482676 246.00000000
v -0.64854630 0.43334478 246.00000000
v -0.68789859 0.36768945 246.00000000
v -0.72062604 0.29849308 246.00000000
v -0.74641346 0.22642205 246.00000000
v -0.76501252 0.15217045 246.00000000
v -0.77624409 0.07645337 246.00000000
v -0.78000000 0.00000000 246.00000000
v -0.77624409 -0.07645337 246.00000000
v -0.76501252 -0.15217045 246.00000000
v -0.74641346 -0.22642205 246.00000000
v -0.72062604 -0.29849308 246.00000000
v -0.68789859 -0.36768945 246.00000000
v -0.64854630 -0.43334478 246.00000000
v -0.60294815 -0.49482676 246.00000000
v -0.55154329 -0.55154329 246.00000000
v -0.49482676 -0.60294815 246.00000000
v -0.43334478 -0.64854630 246.00000000
v -0.36768945 -0.68789859 246.00000000
v -0.29849308 -0.72062604 246.00000000
v -0.22642205 -0.74641346 246.00000000
v -0.15217045 -0.76501252 246.00000000
v -0.07645337 -0.77624409 246.00000000
v -0.00000000 -0.78000000 246.00000000
v 0.07645337 -0.77624409 246.00000000
v 0.15217045 -0.76501252 246.00000000
v 0.22642205 -0.74641346 246.00000000
v 0.29849308 -0.72062604 246.00000000
v 0.36768945 -0.68789859 246.00000000
v 0.43334478 -0.64854630 246.00000000
v 0.49482676 -0.60294815 246.00000000
v 0.55154329 -0.55154329 246.00000000
v 0.60294815 -0.49482676 246.00000000
v 0.64854630 -0.43334478 246.00000000
v 0.68789859 -0.36768945 246.00000000
v 0.72062604 -0.29849308 246.00000000
v 0.74641346 -0.22642205 246.00000000
v 0.76501252 -0.15217045 246.00000000
v 0.77624409 -0.07645337 246.00000000
v 1.08000000 0.00000000 255.00000000
v 1.07479950 0.10585851 255.00000000
v 1.05924810 0.21069755 255.00000000
v 1.03349556 0.31350745 255.00000000
v 0.99778990 0.41329811 255.00000000
v 0.95247497 0.50910848 255.00000000
v 0.89798718 0.60001585 255.00000000
v 0.83485129 0.68514475 255.00000000
v 0.76367532 0.76367532 255.00000000
v 0.68514475 0.83485129 255.00000000
v 0.60001585 0.89798718 255.00000000
v 0.50910848 0.95247497 255.00000000
v 0.41329811 0.99778990 255.00000000
v 0.31350745 1.03349556 255.00000000
v 0.21069755 1.05924810 255.00000000
v 0.10585851 1.07479950 255.00000000
v 0.00000000 1.08000000 255.00000000
v -0.10585851 1.07479950 255.00000000
v -0.21069755 1.05924810 255.00000000
v -0.31350745 1.03349556 255.00000000
v -0.41329811 0.99778990 255.00000000
v -0.50910848 0.95247497 255.00000000
v -0.60001585 0.89798718 255.00000000
v -0.68514475 0.83485129 255.00000000
v -0.76367532 0.76367532 255.00000000
v -0.83485129 0.68514475 255.00000000
v -0.89798718 0.60001585 255.00000000
v -0.95247497 0.50910848 255.00000000
v -0.99778990 0.41329811 255.00000000
v -1.03349556 0.31350745 255.00000000
v -1.05924810 0.21069755 255.00000000
v -1.07479950 0.10585851 255.00000000
v -1.08000000 0.00000000 255.00000000
v -1.07479950 -0.10585851 255.00000000
v -1.05924810 -0.21069755 255.00000000
v -1.03349556 -0.31350745 255.00000000
v -0.99778990 -0.41329811 255.00000000
v -0.95247497 -0.50910848 255.00000000
v -0.89798718 -0.60001585 255.00000000
v -0.83485129 -0.68514475 255.00000000
v -0.76367532 -0.76367532 255.00000000
v -0.68514475 -0.83485129 255.00000000
v -0.60001585 -0.89798718 255.00000000
v -0.50910848 -0.95247497 255.00000000
v -0.41329811 -0.99778990 255.00000000
v -0.31350745 -1.03349556 255.00000000
v -0.21069755 -1.05924810 255.00000000
v -0.10585851 -1.07479950 255.00000000
v -0.00000000 -1.08000000 255.00000000
v 0.10585851 -1.07479950 255.00000000
v 0.21069755 -1.05924810 255.00000000
v 0.31350745 -1.03349556 255.00000000
v 0.41329811 -0.99778990 255.00000000
v 0.50910848 -0.95247497 255.00000000
v 0.60001585 -0.89798718 255.00000000
v 0.68514475 -0.83485129 255.00000000
v 0.76367532 -0.76367532 255.00000000
v 0.83485129 -0.68514475 255.00000000
v 0.89798718 -0.60001585 255.00000000
v 0.95247497 -0.50910848 255.00000000
v 0.99778990 -0.41329811 255.00000000
v 1.03349556 -0.31350745 255.00000000
v 1.05924810 -0.21069755 255.00000000
v 1.07479950 -0.10585851 255.00000000
f 1 2 66
f 1 66 65
f 2 3 67
f 2 67 66
f 3 4 68
f 3 68 67
f 4 5 69
f 4 69 68
f 5 6 70
f 5 70 69
f 6 7 71
f 6 71 70
f 7 8 72
f 7 72 71
f 8 9 73
f 8 73 72
f 9 10 74
f 9 74 73
f 10 11 75
f 10 75 74
f 11 12 76
f 11 76 75
f 12 13 77
f 12 77 76
f 13 14 78
f 13 78 77
f 14 15 79
f 14 79 78
f 15 16 80
f 15 80 79
f 16 17 81
f 16 81 80
f 17 18 82
f 17 82 81
f 18 19 83
f 18 83 82
f 19 20 84
f 19 84 83
f 20 21 85
f 20 85 84
f 21 22 86
f 21 86 85
f 22 23 87
f 22 87 86
f 23 24 88
f 23 88 87
f 24 25 89
f 24 89 88
f 25 26 90
f 25 90 89
f 26 27 91
f 26 91 90
f 27 28 92
f 27 92 91
f 28 29 93
f 28 93 92
f 29 30 94
f 29 94 93
f 30 31 95
f 30 95 94
f 31 32 96
f 31 96 95
f 32 33 97
f 32 97 96
f 33 34 98
f 33 98 97
f 34 35 99
f 34 99 98
f 35 36 100
f 35 100 99
f 36 37 101
f 36 101 100
f 37 38 102
f 37 102 101
f 38 39 103
f 38 103 102
f 39 40 104
f 39 104 103
f 40 41 105
f 40 105 104
f 41 42 106
f 41 106 105
f 42 43 107
f 42 107 106
f 43 44 108
f 43 108 107
f 44 45 109
f 44 109 108
f 45 46 110
f 45 110 109
f 46 47 111
f 46 111 110
f 47 48 112
f 47 112 111
f 48 49 113
f 48 113 112
f 49 50 114
f 49 114 113
f 50 51 115
f 50 115 114
f 51 52 116
f 51 116 115
f 52 53 117
f 52 117 116
f 53 54 118
f 53 118 117
f 54 55 119
f 54 119 118
f 55 56 120
f 55 120 119
f 56 57 121
f 56 121 120
f 57 58 122
f 57 122 121
f 58 59 123
f 58 123 122
f 59 60 124
f 59 124 123
f 60 61 125
f 60 125 124
f 61 62 126
f 61 126 125
f 62 63 127
f 62 127 126
f 63 64 128
f 63 128 127
f 64 1 65
f 64 65 128
f 65 66 130
f 65 130 129
f 66 67 131
f 66 131 130
f 67 68 132
f 67 132 131
f 68 69 133
f 68 133 132
f 69 70 134
f 69 134 133
f 70 71 135
f 70 135 134
f 71 72 136
f 71 136 135
f 72 73 137
f 72 137 136
f 73 74 138
f 73 138 137
f 74 75 139
f 74 139 138
f 75 76 140
f 75 140 139
f 76 77 141
f 76 141 140
f 77 78 142
f 77 142 141
f 78 79 143
f 78 143 142
f 79 80 144
f 79 144 143
f 80 81 145
f 80 145 144
f 81 82 146
f 81 146 145
f 82 83 147
f 82 147 146
f 83 84 148
f 83 148 147
f 84 85 149
f 84 149 148
f 85 86 150
f 85 150 149
f 86 87 151
f 86 151 150
f 87 88 152
f 87 152 151
f 88 89 153
f 88 153 152
f 89 90 154
f 89 154 153
f 90 91 155
f 90 155 154
f 91 92 156
f 91 156 155
f 92 93 157
f 92 157 156
f 93 94 158
f 93 158 157
f 94 95 159
f 94 159 158
f 95 96 160
f 95 160 159
f 96 97 161
f 96 161 160
f 97 98 162
f 97 162 161
f 98 99 163
f 98 163 162
f 99 100 164
f 99 164 163
f 100 101 165
f 100 165 164
f 101 102 166
f 101 166 165
f 102 103 167
f 102 167 166
f 103 104 168
f 103 168 167
f 104 105 169
f 104 169 168
f 105 106 170
f 105 170 169
f 106 107 171
f 106 171 170
f 107 108 172
f 107 172 171
f 108 109 173
f 108 173 172
f 109 110 174
f 109 174 173
f 110 111 175
f 110 175 174
f 111 112 176
f 111 176 175
f 112 113 177
f 112 177 176
f 113 114 178
f 113 178 177
f 114 115 179
f 114 179 178
f 115 116 180
f 115 180 179
f 116 117 181
f 116 181 180
f 117 118 182
f 117 182 181
f 118 119 183
f 118 183 182
f 119 120 184
f 119 184 183
f 120 121 185
f 120 185 184
f 121 122 186
f 121 186 185
f 122 123 187
f 122 187 186
f 123 124 188
f 123 188 187
f 124 125 189
f 124 189 188
f 125 126 190
f 125 190 189
f 126 127 191
f 126 191 190
f 127 128 192
f 127 192 191
f 128 65 129
f 128 129 192
f 129 130 194
f 129 194 193
f 130 131 195
f 130 195 194
f 131 132 196
f 131 196 195
f 132 133 197
f 132 197 196
f 133 134 198
f 133 198 197
f 134 135 199
f 134 199 198
f 135 136 200
f 135 200 199
f 136 137 201
f 136 201 200
f 137 138 202
f 137 202 201
f 138 139 203
f 138 203 202
f 139 140 204
f 139 204 203
f 140 141 205
f 140 205 204
f 141 142 206
f 141 206 205
f 142 143 207
f 142 207 206
f 143 144 208
f 143 208 207
f 144 145 209
f 144 209 208
f 145 146 210
f 145 210 209
f 146 147 211
f 146 211 210
f 147 148 212
f 147 212 211
f 148 149 213
f 148 213 212
f 149 150 214
f 149 214 213
f 150 151 215
f 150 215 214
f 151 152 216
f 151 216 215
f 152 153 217
f 152 217 216
f 153 154 218
f 153 218 217
f 154 155 219
f 154 219 218
f 155 156 220
f 155 220 219
f 156 157 221
f 156 221 220
f 157 158 222
f 157 222 221
f 158 159 223
f 158 223 222
f 159 160 224
f 159 224 223
f 160 161 225
f 160 225 224
f 161 162 226
f 161 226 225
f 162 163 227
f 162 227 226
f 163 164 228
f 163 228 227
f 164 165 229
f 164 229 228
f 165 166 230
f 165 230 229
f 166 167 231
f 166 231 230
f 167 168 232
f 167 232 231
f 168 169 233
f 168 233 232
f 169 170 234
f 169 234 233
f 170 171 235
f 170 235 234
f 171 172 236
f 171 236 235
f 172 173 237
f 172 237 236
f 173 174 238
f 173 238 237
f 174 175 239
f 174 239 238
f 175 176 240
f 175 240 239
f 176 177 241
f 176 241 240
f 177 178 242
f 177 242 241
f 178 179 243
f 178 243 242
f 179 180 244
f 179 244 243
f 180 181 245
f 180 245 244
f 181 182 246
f 181 246 245
f 182 183 247
f 182 247 246
f 183 184 248
f 183 248 247
f 184 185 249
f 184 249 248
f 185 186 250
f 185 250 249
f 186 187 251
f 186 251 250
f 187 188 252
f 187 252 251
f 188 189 253
f 188 253 252
f 189 190 254
f 189 254 253
f 190 191 255
f 190 255 254
f 191 192 256
f 191 256 255
f 192 129 193
f 192 193 256
f 193 194 258
f 193 258 257
f 194 195 259
f 194 259 258
f 195 196 260
f 195 260 259
f 196 197 261
f 196 261 260
f 197 198 262
f 197 262 261
f 198 199 263
f 198 263 262
f 199 200 264
f 199 264 263
f 200 201 265
f 200 265 264
f 201 202 266
f 201 266 265
f 202 203 267
f 202 267 266
f 203 204 268
f 203 268 267
f 204 205 269
f 204 269 268
f 205 206 270
f 205 270 269
f 206 207 271
f 206 271 270
f 207 208 272
f 207 272 271
f 208 209 273
f 208 273 272
f 209 210 274
f 209 274 273
f 210 211 275
f 210 275 274
f 211 212 276
f 211 276 275
f 212 213 277
f 212 277 276
f 213 214 278
f 213 278 277
f 214 215 279
f 214 279 278
f 215 216 280
f 215 280 279
f 216 217 281
f 216 281 280
f 217 218 282
f 217 282 281
f 218 219 283
f 218 283 282
f 219 220 284
f 219 284 283
f 220 221 285
f 220 285 284
f 221 222 286
f 221 286 285
f 222 223 287
f 222 287 286
f 223 224 288
f 223 288 287
f 224 225 289
f 224 289 288
f 225 226 290
f 225 290 289
f 226 227 291
f 226 291 290
f 227 228 292
f 227 292 291
f 228 229 293
f 228 293 292
f 229 230 294
f 229 294 293
f 230 231 295
f 230 295 294
f 231 232 296
f 231 296 295
f 232 233 297
f 232 297 296
f 233 234 298
f 233 298 297
f 234 235 299
f 234 299 298
f 235 236 300
f 235 300 299
f 236 237 301
f 236 301 300
f 237 238 302
f 237 302 301
f 238 239 303
f 238 303 302
f 239 240 304
f 239 304 303
f 240 241 305
f 240 305 304
f 241 242 306
f 241 306 305
f 242 243 307
f 242 307 306
f 243 244 308
f 243 308 307
f 244 245 309
f 244 309 308
f 245 246 310
f 245 310 309
f 246 247 311
f 246 311 310
f 247 248 312
f 247 312 311
f 248 249 313
f 248 313 312
f 249 250 314
f 249 314 313
f 250 251 315
f 250 315 314
f 251 252 316
f 251 316 315
f 252 253 317
f 252 317 316
f 253 254 318
f 253 318 317
f 254 255 319
f 254 319 318
f 255 256 320
f 255 320 319
f 256 193 257
f 256 257 320
f 321 386 322
f 321 385 386
f 322 387 323
f 322 386 387
f 323 388 324
f 323 387 388
f 324 389 325
f 324 388 389
f 325 390 326
f 325 389 390
f 326 391 327
f 326 390 391
f 327 392 328
f 327 391 392
f 328 393 329
f 328 392 393
f 329 394 330
f 329 393 394
f 330 395 331
f 330 394 395
f 331 396 332
f 331 395 396
f 332 397 333
f 332 396 397
f 333 398 334
f 333 397 398
f 334 399 335
f 334 398 399
f 335 400 336
f 335 399 400
f 336 401 337
f 336 400 401
f 337 402 338
f 337 401 402
f 338 403 339
f 338 402 403
f 339 404 340
f 339 403 404
f 340 405 341
f 340 404 405
f 341 406 342
f 341 405 406
f 342 407 343
f 342 406 407
f 343 408 344
f 343 407 408
f 344 409 345
f 344 408 409
f 345 410 346
f 345 409 410
f 346 411 347
f 346 410 411
f 347 412 348
f 347 411 412
f 348 413 349
f 348 412 413
f 349 414 350
f 349 413 414
f 350 415 351
f 350 414 415
f 351 416 352
f 351 415 416
f 352 417 353
f 352 416 417
f 353 418 354
f 353 417 418
f 354 419 355
f 354 418 419
f 355 420 356
f 355 419 420
f 356 421 357
f 356 420 421
f 357 422 358
f 357 421 422
f 358 423 359
f 358 422 423
f 359 424 360
f 359 423 424
f 360 425 361
f 360 424 425
f 361 426 362
f 361 425 426
f 362 427 363
f 362 426 427
f 363 428 364
f 363 427 428
f 364 429 365
f 364 428 429
f 365 430 366
f 365 429 430
f 366 431 367
f 366 430 431
f 367 432 368
f 367 431 432
f 368 433 369
f 368 432 433
f 369 434 370
f 369 433 434
f 370 435 371
f 370 434 435
f 371 436 372
f 371 435 436
f 372 437 373
f 372 436 437
f 373 438 374
f 373 437 438
f 374 439 375
f 374 438 439
f 375 440 376
f 375 439 440
f 376 441 377
f 376 440 441
f 377 442 378
f 377 441 442
f 378 443 379
f 378 442 443
f 379 444 380
f 379 443 444
f 380 445 381
f 380 444 445
f 381 446 382
f 381 445 446
f 382 447 383
f 382 446 447
f 383 448 384
f 383 447 448
f 384 385 321
f 384 448 385
f 385 450 386
f 385 449 450
f 386 451 387
f 386 450 451
f 387 452 388
f 387 451 452
f 388 453 389
f 388 452 453
f 389 454 390
f 389 453 454
f 390 455 391
f 390 454 455
f 391 456 392
f 391 455 456
f 392 457 393
f 392 456 457
f 393 458 394
f 393 457 458
f 394 459 395
f 394 458 459
f 395 460 396
f 395 459 460
f 396 461 397
f 396 460 461
f 397 462 398
f 397 461 462
f 398 463 399
f 398 462 463
f 399 464 400
f 399 463 464
f 400 465 401
f 400 464 465
f 401 466 402
f 401 465 466
f 402 467 403
f 402 466 467
f 403 468 404
f 403 467 468
f 404 469 405
f 404 468 469
f 405 470 406
f 405 469 470
f 406 471 407
f 406 470 471
f 407 472 408
f 407 471 472
f 408 473 409
f 408 472 473
f 409 474 410
f 409 473 474
f 410 475 411
f 410 474 475
f 411 476 412
f 411 475 476
f 412 477 413
f 412 476 477
f 413 478 414
f 413 477 478
f 414 479 415
f 414 478 479
f 415 480 416
f 415 479 480
f 416 481 417
f 416 480 481
f 417 482 418
f 417 481 482
f 418 483 419
f 418 482 483
f 419 484 420
f 419 483 484
f 420 485 421
f 420 484 485
f 421 486 422
f 421 485 486
f 422 487 423
f 422 486 487
f 423 488 424
f 423 487 488
f 424 489 425
f 424 488 489
f 425 490 426
f 425 489 490
f 426 491 427
f 426 490 491
f 427 492 428
f 427 491 492
f 428 493 429
f 428 492 493
f 429 494 430
f 429 493 494
f 430 495 431
f 430 494 495
f 431 496 432
f 431 495 496
f 432 497 433
f 432 496 497
f 433 498 434
f 433 497 498
f 434 499 435
f 434 498 499
f 435 500 436
f 435 499 500
f 436 501 437
f 436 500 501
f 437 502 438
f 437 501 502
f 438 503 439
f 438 502 503
f 439 504 440
f 439 503 504
f 440 505 441
f 440 504 505
f 441 506 442
f 441 505 506
f 442 507 443
f 442 506 507
f 443 508 444
f 443 507 508
f 444 509 445
f 444 508 509
f 445 510 446
f 445 509 510
f 446 511 447
f 446 510 511
f 447 512 448
f 447 511 512
f 448 449 385
f 448 512 449
f 449 514 450
f 449 513 514
f 450 515 451
f 450 514 515
f 451 516 452
f 451 515 516
f 452 517 453
f 452 516 517
f 453 518 454
f 453 517 518
f 454 519 455
f 454 518 519
f 455 520 456
f 455 519 520
f 456 521 457
f 456 520 521
f 457 522 458
f 457 521 522
f 458 523 459
f 458 522 523
f 459 524 460
f 459 523 524
f 460 525 461
f 460 524 525
f 461 526 462
f 461 525 526
f 462 527 463
f 462 526 527
f 463 528 464
f 463 527 528
f 464 529 465
f 464 528 529
f 465 530 466
f 465 529 530
f 466 531 467
f 466 530 531
f 467 532 468
f 467 531 532
f 468 533 469
f 468 532 533
f 469 534 470
f 469 533 534
f 470 535 471
f 470 534 535
f 471 536 472
f 471 535 536
f 472 537 473
f 472 536 537
f 473 538 474
f 473 537 538
f 474 539 475
f 474 538 539
f 475 540 476
f 475 539 540
f 476 541 477
f 476 540 541
f 477 542 478
f 477 541 542
f 478 543 479
f 478 542 543
f 479 544 480
f 479 543 544
f 480 545 481
f 480 544 545
f 481 546 482
f 481 545 546
f 482 547 483
f 482 546 547
f 483 548 484
f 483 547 548
f 484 549 485
f 484 548 549
f 485 550 486
f 485 549 550
f 486 551 487
f 486 550 551
f 487 552 488
f 487 551 552
f 488 553 489
f 488 552 553
f 489 554 490
f 489 553 554
f 490 555 491
f 490 554 555
f 491 556 492
f 491 555 556
f 492 557 493
f 492 556 557
f 493 558 494
f 493 557 558
f 494 559 495
f 494 558 559
f 495 560 496
f 495 559 560
f 496 561 497
f 496 560 561
f 497 562 498
f 497 561 562
f 498 563 499
f 498 562 563
f 499 564 500
f 499 563 564
f 500 565 501
f 500 564 565
f 501 566 502
f 501 565 566
f 502 567 503
f 502 566 567
f 503 568 504
f 503 567 568
f 504 569 505
f 504 568 569
f 505 570 506
f 505 569 570
f 506 571 507
f 506 570 571
f 507 572 508
f 507 571 572
f 508 573 509
f 508 572 573
f 509 574 510
f 509 573 574
f 510 575 511
f 510 574 575
f 511 576 512
f 511 575 576
f 512 513 449
f 512 576 513
f 513 578 514
f 513 577 578
f 514 579 515
f 514 578 579
f 515 580 516
f 515 579 580
f 516 581 517
f 516 580 581
f 517 582 518
f 517 581 582
f 518 583 519
f 518 582 583
f 519 584 520
f 519 583 584
f 520 585 521
f 520 584 585
f 521 586 522
f 521 585 586
f 522 587 523
f 522 586 587
f 523 588 524
f 523 587 588
f 524 589 525
f 524 588 589
f 525 590 526
f 525 589 590
f 526 591 527
f 526 590 591
f 527 592 528
f 527 591 592
f 528 593 529
f 528 592 593
f 529 594 530
f 529 593 594
f 530 595 531
f 530 594 595
f 531 596 532
f 531 595 596
f 532 597 533
f 532 596 597
f 533 598 534
f 533 597 598
f 534 599 535
f 534 598 599
f 535 600 536
f 535 599 600
f 536 601 537
f 536 600 601
f 537 602 538
f 537 601 602
f 538 603 539
f 538 602 603
f 539 604 540
f 539 603 604
f 540 605 541
f 540 604 605
f 541 606 542
f 541 605 606
f 542 607 543
f 542 606 607
f 543 608 544
f 543 607 608
f 544 609 545
f 544 608 609
f 545 610 546
f 545 609 610
f 546 611 547
f 546 610 611
f 547 612 548
f 547 611 612
f 548 613 549
f 548 612 613
f 549 614 550
f 549 613 614
f 550 615 551
f 550 614 615
f 551 616 552
f 551 615 616
f 552 617 553
f 552 616 617
f 553 618 554
f 553 617 618
f 554 619 555
f 554 618 619
f 555 620 556
f 555 619 620
f 556 621 557
f 556 620 621
f 557 622 558
f 557 621 622
f 558 623 559
f 558 622 623
f 559 624 560
f 559 623 624
f 560 625 561
f 560 624 625
f 561 626 562
f 561 625 626
f 562 627 563
f 562 626 627
f 563 628 564
f 563 627 628
f 564 629 565
f 564 628 629
f 565 630 566
f 565 629 630
f 566 631 567
f 566 630 631
f 567 632 568
f 567 631 632
f 568 633 569
f 568 632 633
f 569 634 570
f 569 633 634
f 570 635 571
f 570 634 635
f 571 636 572
f 571 635 636
f 572 637 573
f 572 636 637
f 573 638 574
f 573 637 638
f 574 639 575
f 574 638 639
f 575 640 576
f 575 639 640
f 576 577 513
f 576 640 577
f 1 321 322
f 1 322 2
f 2 322 323
f 2 323 3
f 3 323 324
f 3 324 4
f 4 324 325
f 4 325 5
f 5 325 326
f 5 326 6
f 6 326 327
f 6 327 7
f 7 327 328
f 7 328 8
f 8 328 329
f 8 329 9
f 9 329 330
f 9 330 10
f 10 330 331
f 10 331 11
f 11 331 332
f 11 332 12
f 12 332 333
f 12 333 13
f 13 333 334
f 13 334 14
f 14 334 335
f 14 335 15
f 15 335 336
f 15 336 16
f 16 336 337
f 16 337 17
f 17 337 338
f 17 338 18
f 18 338 339
f 18 339 19
f 19 339 340
f 19 340 20
f 20 340 341
f 20 341 21
f 21 341 342
f 21 342 22
f 22 342 343
f 22 343 23
f 23 343 344
f 23 344 24
f 24 344 345
f 24 345 25
f 25 345 346
f 25 346 26
f 26 346 347
f 26 347 27
f 27 347 348
f 27 348 28
f 28 348 349
f 28 349 29
f 29 349 350
f 29 350 30
f 30 350 351
f 30 351 31
f 31 351 352
f 31 352 32
f 32 352 353
f 32 353 33
f 33 353 354
f 33 354 34
f 34 354 355
f 34 355 35
f 35 355 356
f 35 356 36
f 36 356 357
f 36 357 37
f 37 357 358
f 37 358 38
f 38 358 359
f 38 359 39
f 39 359 360
f 39 360 40
f 40 360 361
f 40 361 41
f 41 361 362
f 41 362 42
f 42 362 363
f 42 363 43
f 43 363 364
f 43 364 44
f 44 364 365
f 44 365 45
f 45 365 366
f 45 366 46
f 46 366 367
f 46 367 47
f 47 367 368
f 47 368 48
f 48 368 369
f 48 369 49
f 49 369 370
f 49 370 50
f 50 370 371
f 50 371 51
f 51 371 372
f 51 372 52
f 52 372 373
f 52 373 53
f 53 373 374
f 53 374 54
f 54 374 375
f 54 375 55
f 55 375 376
f 55 376 56
f 56 376 377
f 56 377 57
f 57 377 378
f 57 378 58
f 58 378 379
f 58 379 59
f 59 379 380
f 59 380 60
f 60 380 381
f 60 381 61
f 61 381 382
f 61 382 62
f 62 382 383
f 62 383 63
f 63 383 384
f 63 384 64
f 64 384 321
f 64 321 1
f 257 258 578
f 257 578 577
f 258 259 579
f 258 579 578
f 259 260 580
f 259 580 579
f 260 261 581
f 260 581 580
f 261 262 582
f 261 582 581
f 262 263 583
f 262 583 582
f 263 264 584
f 263 584 583
f 264 265 585
f 264 585 584
f 265 266 586
f 265 586 585
f 266 267 587
f 266 587 586
f 267 268 588
f 267 588 587
f 268 269 589
f 268 589 588
f 269 270 590
f 269 590 589
f 270 271 591
f 270 591 590
f 271 272 592
f 271 592 591
f 272 273 593
f 272 593 592
f 273 274 594
f 273 594 593
f 274 275 595
f 274 595 594
f 275 276 596
f 275 596 595
f 276 277 597
f 276 597 596
f 277 278 598
f 277 598 597
f 278 279 599
f 278 599 598
f 279 280 600
f 279 600 599
f 280 281 601
f 280 601 600
f 281 282 602
f 281 602 601
f 282 283 603
f 282 603 602
f 283 284 604
f 283 604 603
f 284 285 605
f 284 605 604
f 285 286 606
f 285 606 605
f 286 287 607
f 286 607 606
f 287 288 608
f 287 608 607
f 288 289 609
f 288 609 608
f 289 290 610
f 289 610 609
f 290 291 611
f 290 611 610
f 291 292 612
f 291 612 611
f 292 293 613
f 292 613 612
f 293 294 614
f 293 614 613
f 294 295 615
f 294 615 614
f 295 296 616
f 295 616 615
f 296 297 617
f 296 617 616
f 297 298 618
f 297 618 617
f 298 299 619
f 298 619 618
f 299 300 620
f 299 620 619
f 300 301 621
f 300 621 620
f 301 302 622
f 301 622 621
f 302 303 623
f 302 623 622
f 303 304 624
f 303 624 623
f 304 305 625
f 304 625 624
f 305 306 626
f 305 626 625
f 306 307 627
f 306 627 626
f 307 308 628
f 307 628 627
f 308 309 629
f 308 629 628
f 309 310 630
f 309 630 629
f 310 311 631
f 310 631 630
f 311 312 632
f 311 632 631
f 312 313 633
f 312 633 632
f 313 314 634
f 313 634 633
f 314 315 635
f 314 635 634
f 315 316 636
f 315 636 635
f 316 317 637
f 316 637 636
f 317 318 638
f 317 638 637
f 318 319 639
f 318 639 638
f 319 320 640
f 319 640 639
f 320 257 577
f 320 577 640

